<svg width="44" height="44" viewBox="0 0 44 44" fill="none" xmlns="http://www.w3.org/2000/svg">
<g clip-path="url(#clip0_275_4005)">
<path d="M14.9897 3.48096H31.6568C38.0061 3.48096 43.165 8.63982 43.165 14.9892V31.6563C43.165 34.7084 41.9525 37.6356 39.7943 39.7938C37.6361 41.952 34.7089 43.1645 31.6568 43.1645H14.9897C8.64031 43.1645 3.48145 38.0056 3.48145 31.6563V14.9892C3.48145 11.937 4.69392 9.00985 6.85213 6.85164C9.01034 4.69343 11.9375 3.48096 14.9897 3.48096ZM14.5928 7.44931C12.6984 7.44931 10.8815 8.20188 9.54195 9.54146C8.20237 10.881 7.4498 12.6979 7.4498 14.5923V32.0531C7.4498 36.0016 10.6443 39.1961 14.5928 39.1961H32.0536C33.948 39.1961 35.7649 38.4436 37.1045 37.104C38.4441 35.7644 39.1966 33.9476 39.1966 32.0531V14.5923C39.1966 10.6438 36.0021 7.44931 32.0536 7.44931H14.5928ZM33.7401 10.4256C34.3979 10.4256 35.0288 10.6869 35.4939 11.152C35.9591 11.6171 36.2204 12.248 36.2204 12.9058C36.2204 13.5636 35.9591 14.1944 35.4939 14.6596C35.0288 15.1247 34.3979 15.386 33.7401 15.386C33.0824 15.386 32.4515 15.1247 31.9864 14.6596C31.5212 14.1944 31.2599 13.5636 31.2599 12.9058C31.2599 12.248 31.5212 11.6171 31.9864 11.152C32.4515 10.6869 33.0824 10.4256 33.7401 10.4256ZM23.3232 13.4018C25.9544 13.4018 28.4778 14.4471 30.3383 16.3076C32.1989 18.1681 33.2441 20.6915 33.2441 23.3227C33.2441 25.9539 32.1989 28.4773 30.3383 30.3379C28.4778 32.1984 25.9544 33.2436 23.3232 33.2436C20.692 33.2436 18.1686 32.1984 16.3081 30.3379C14.4476 28.4773 13.4023 25.9539 13.4023 23.3227C13.4023 20.6915 14.4476 18.1681 16.3081 16.3076C18.1686 14.4471 20.692 13.4018 23.3232 13.4018ZM23.3232 17.3702C21.7445 17.3702 20.2305 17.9973 19.1141 19.1137C17.9978 20.23 17.3707 21.744 17.3707 23.3227C17.3707 24.9014 17.9978 26.4155 19.1141 27.5318C20.2305 28.6481 21.7445 29.2753 23.3232 29.2753C24.9019 29.2753 26.416 28.6481 27.5323 27.5318C28.6486 26.4155 29.2757 24.9014 29.2757 23.3227C29.2757 21.744 28.6486 20.23 27.5323 19.1137C26.416 17.9973 24.9019 17.3702 23.3232 17.3702Z" fill="white"/>
</g>
<defs>
<clipPath id="clip0_275_4005">
<rect width="43.1646" height="43.1646" fill="white"/>
</clipPath>
</defs>
</svg>
