<svg width="371" height="722" viewBox="0 0 371 722" fill="none" xmlns="http://www.w3.org/2000/svg">
<path d="M94.3336 323.988H88.6472V359.283H94.3336C94.9219 359.283 95.5101 359.871 95.5101 360.459V377.714C95.5101 378.303 94.9219 378.891 94.3336 378.891H63.3526C62.7644 378.891 62.1761 378.303 62.1761 377.714V360.459C62.1761 359.871 62.7644 359.283 63.3526 359.283H69.039V344.38L51.0975 375.067C50.5092 376.048 49.5288 375.95 49.0386 374.969L33.7442 346.635V359.283H39.4306C40.0188 359.283 40.6071 359.871 40.6071 360.459V377.714C40.6071 378.303 40.0188 378.891 39.4306 378.891H8.44957C7.86133 378.891 7.27308 378.303 7.27308 377.714V360.459C7.27308 359.871 7.86133 359.283 8.44957 359.283H14.136V323.988H8.44957C7.86133 323.988 7.27308 323.4 7.27308 322.811V305.556C7.27308 304.968 7.86133 304.38 8.44957 304.38H31.8814C32.0775 304.38 32.7638 304.772 32.8618 304.968L50.6073 337.91L69.9214 304.968C70.1175 304.772 70.7057 304.38 70.9998 304.38H94.3336C94.9219 304.38 95.5101 304.968 95.5101 305.556V322.811C95.5101 323.4 94.9219 323.988 94.3336 323.988ZM87.4707 322.811H94.3336V305.556H70.9998L50.6073 340.263L31.8814 305.556H8.44957V322.811H15.3125V360.459H8.44957V377.714H39.4306V360.459H32.5677V341.929L50.019 374.479L70.2155 340.067V360.459H63.3526V377.714H94.3336V360.459H87.4707V322.811ZM92.5689 321.047H85.706V362.224H92.5689V375.95H65.1174V362.224H71.9802V333.596L50.1171 370.852L30.803 334.969V362.224H37.6658V375.95H10.2143V362.224H17.0772V321.047H10.2143V307.321H30.803L50.5092 343.89L71.9802 307.321H92.5689V321.047ZM140.775 305.164L161.56 359.283H167.639C168.227 359.283 168.815 359.871 168.815 360.459V377.714C168.815 378.303 168.227 378.891 167.639 378.891H136.658C136.069 378.891 135.481 378.303 135.481 377.714V360.459C135.481 359.871 136.069 359.283 136.658 359.283H140.481L140.285 358.793H124.108L123.912 359.283H126.461C127.049 359.283 127.638 359.871 127.638 360.459V377.714C127.638 378.303 127.049 378.891 126.461 378.891H95.4802C94.892 378.891 94.3037 378.303 94.3037 377.714V360.459C94.3037 359.871 94.892 359.283 95.4802 359.283H102.833L116.363 323.988H109.206C108.618 323.988 108.029 323.4 108.029 322.811V305.556C108.029 304.968 108.618 304.38 109.206 304.38H139.599C139.991 304.38 140.579 304.772 140.775 305.164ZM160.678 360.459L139.599 305.556H109.206V322.811H118.128L103.716 360.459H95.4802V377.714H126.461V360.459H122.147L123.226 357.616H141.167L142.246 360.459H136.658V377.714H167.639V360.459H160.678ZM159.501 362.224H165.874V375.95H138.422V362.224H144.795L142.344 355.851H122.049L119.598 362.224H124.696V375.95H97.245V362.224H104.892L120.677 321.047H110.971V307.321H138.422L159.501 362.224ZM127.344 342.126H137.05L132.246 329.38L127.344 342.126ZM129.893 340.361L132.246 334.38L134.501 340.361H129.893ZM132.246 337.616L131.657 339.184H132.834L132.246 337.616ZM155.32 304.38H213.752C214.341 304.38 214.929 304.968 214.929 305.556V329.87C214.929 330.459 214.341 331.047 213.752 331.047H196.497C195.909 331.047 195.321 330.459 195.321 329.87V323.988H194.34V359.283H200.027C200.615 359.283 201.203 359.871 201.203 360.459V377.714C201.203 378.303 200.615 378.891 200.027 378.891H169.046C168.457 378.891 167.869 378.303 167.869 377.714V360.459C167.869 359.871 168.457 359.283 169.046 359.283H174.732V323.988H173.752V329.87C173.752 330.459 173.163 331.047 172.575 331.047H155.32C154.732 331.047 154.143 330.459 154.143 329.87V305.556C154.143 304.968 154.732 304.38 155.32 304.38ZM213.752 305.556H155.32V329.87H172.575V322.811H175.908V360.459H169.046V377.714H200.027V360.459H193.164V322.811H196.497V329.87H213.752V305.556ZM157.085 307.321H211.988V328.106H198.262V321.047H191.399V362.224H198.262V375.95H170.81V362.224H177.673V321.047H170.81V328.106H157.085V307.321ZM237.417 323.988L233.495 327.91V355.361L237.417 359.283H244.182L250.456 353.008C250.555 352.91 251.143 352.616 251.339 352.616H266.633C267.222 352.616 267.81 353.204 267.81 353.792V362.91C267.81 363.106 267.516 363.695 267.516 363.793L252.711 378.597C252.711 378.597 252.613 378.597 252.515 378.597L252.123 378.891C252.025 378.891 251.927 378.891 251.927 378.891H229.868C229.672 378.891 229.084 378.597 228.985 378.597L214.181 363.793C214.181 363.695 213.887 363.106 213.887 362.91V320.262C213.887 320.262 213.887 320.164 213.887 320.066L214.181 319.674C214.181 319.576 214.181 319.478 214.181 319.478L228.985 304.674C229.084 304.674 229.672 304.38 229.868 304.38H251.927C251.927 304.38 252.025 304.38 252.123 304.38L252.515 304.674C252.613 304.674 252.711 304.674 252.711 304.674L267.516 319.478C267.516 319.478 267.516 319.576 267.516 319.674L267.81 320.066C267.81 320.164 267.81 320.262 267.81 320.262V329.87C267.81 330.459 267.222 331.047 266.633 331.047H251.927C251.731 331.047 251.143 330.753 251.045 330.655L244.28 323.988H237.417ZM232.319 327.419L237.025 322.811H244.77L251.927 329.87H266.633V320.262L251.927 305.556H229.868L215.064 320.262V362.91L229.868 377.714H251.927L266.633 362.91V353.792H251.339L244.77 360.459H237.025L232.319 355.753V327.419ZM236.241 321.047L230.554 326.733V356.538L236.241 362.224H245.456L252.025 355.557H264.869V362.224L251.143 375.95H230.554L216.828 362.224V321.047L230.554 307.321H251.143L264.869 321.047V328.106H252.613L245.456 321.047H236.241ZM333.209 323.988H327.523V359.283H333.209C333.798 359.283 334.386 359.871 334.386 360.459V377.714C334.386 378.303 333.798 378.891 333.209 378.891H302.228C301.64 378.891 301.052 378.303 301.052 377.714V360.459C301.052 359.871 301.64 359.283 302.228 359.283H307.915V351.439H293.209V359.283H298.895C299.483 359.283 300.071 359.871 300.071 360.459V377.714C300.071 378.303 299.483 378.891 298.895 378.891H267.914C267.326 378.891 266.737 378.303 266.737 377.714V360.459C266.737 359.871 267.326 359.283 267.914 359.283H273.6V323.988H267.914C267.326 323.988 266.737 323.4 266.737 322.811V305.556C266.737 304.968 267.326 304.38 267.914 304.38H298.895C299.483 304.38 300.071 304.968 300.071 305.556V322.811C300.071 323.4 299.483 323.988 298.895 323.988H293.209V331.831H307.915V323.988H302.228C301.64 323.988 301.052 323.4 301.052 322.811V305.556C301.052 304.968 301.64 304.38 302.228 304.38H333.209C333.798 304.38 334.386 304.968 334.386 305.556V322.811C334.386 323.4 333.798 323.988 333.209 323.988ZM326.346 322.811H333.209V305.556H302.228V322.811H309.091V333.008H292.032V322.811H298.895V305.556H267.914V322.811H274.777V360.459H267.914V377.714H298.895V360.459H292.032V350.263H309.091V360.459H302.228V377.714H333.209V360.459H326.346V322.811ZM331.445 321.047H324.582V362.224H331.445V375.95H303.993V362.224H310.856V348.498H290.267V362.224H297.13V375.95H269.679V362.224H276.542V321.047H269.679V307.321H297.13V321.047H290.267V334.772H310.856V321.047H303.993V307.321H331.445V321.047Z" fill="#FF991B"/>
<path d="M103.581 409.02H193.748C195.46 409.02 197.172 410.732 197.172 412.444V462.664C197.172 464.376 195.46 466.088 193.748 466.088H177.198V579.368C177.198 579.938 176.342 581.65 176.342 581.936L133.256 625.022C133.256 625.022 132.971 625.022 132.685 625.022L131.544 625.878C131.259 625.878 130.973 625.878 130.973 625.878H66.772C66.2014 625.878 64.4893 625.022 64.204 625.022L21.4031 581.936C21.1177 581.65 20.2617 579.938 20.2617 579.368V466.088H3.71204C2 466.088 0.287964 464.376 0.287964 462.664V412.444C0.287964 410.732 2 409.02 3.71204 409.02H93.8793C95.5913 409.02 97.3034 410.732 97.3034 412.444V462.664C97.3034 464.376 95.5913 466.088 93.8793 466.088H77.3296V557.397L88.7432 568.81H108.717L120.131 557.397V466.088H103.581C101.869 466.088 100.157 464.376 100.157 462.664V412.444C100.157 410.732 101.869 409.02 103.581 409.02ZM193.748 412.444H103.581V462.664H123.555V558.538L110.144 572.234H87.6018L73.9055 558.538V462.664H93.8793V412.444H3.71204V462.664H23.6858V579.368L66.772 622.454H130.973L173.774 579.368V462.664H193.748V412.444ZM108.717 417.58H188.612V457.528H168.638V577.37L128.691 617.318H68.7694L28.8219 577.37V457.528H8.84814V417.58H88.7432V457.528H68.7694V560.821L85.3191 577.37H112.141L128.691 560.821V457.528H108.717V417.58ZM197.375 409.02H324.636C324.636 409.02 324.922 409.02 325.207 409.02L326.348 409.876C326.634 409.876 326.919 409.876 326.919 409.876L370.005 452.962C370.005 452.962 370.005 453.248 370.005 453.533L370.861 454.674C370.861 454.96 370.861 455.245 370.861 455.245V499.473C370.861 500.043 370.005 501.755 370.005 502.041L326.919 544.842C326.634 545.127 324.922 545.983 324.636 545.983H270.993V568.81H287.542C289.254 568.81 290.966 570.522 290.966 572.234V622.454C290.966 624.166 289.254 625.878 287.542 625.878H197.375C195.663 625.878 193.951 624.166 193.951 622.454V572.234C193.951 570.522 195.663 568.81 197.375 568.81H213.925V466.088H197.375C195.663 466.088 193.951 464.376 193.951 462.664V412.444C193.951 410.732 195.663 409.02 197.375 409.02ZM324.636 412.444H197.375V462.664H217.349V572.234H197.375V622.454H287.542V572.234H267.568V542.559H324.636L367.437 499.473V455.245L324.636 412.444ZM322.354 417.58L362.301 457.528V497.475L322.354 537.423H262.432V577.37H282.406V617.318H202.511V577.37H222.485V457.528H202.511V417.58H322.354ZM322.354 480.926V474.078L305.804 457.528H262.432V497.475H305.804L322.354 480.926ZM317.218 478.643L303.807 492.339H267.568V462.664H303.807L317.218 476.075V478.643ZM302.38 488.915L313.793 477.502L302.38 466.088H270.993V488.915H302.38Z" fill="#FF991B"/>
<path d="M176.354 145.542C173.328 142.891 170.516 140.039 167.705 137.189C166.737 136.207 165.769 135.226 164.793 134.253C163.073 132.531 162.399 130.975 164.881 129.348M176.354 145.542L166.192 127.944C166.047 128.1 165.91 128.27 165.773 128.44C165.5 128.781 165.226 129.121 164.881 129.348M176.354 145.542L176.563 145.724M176.354 145.542L176.563 145.724M164.881 129.348L163.906 127.86C162.428 128.829 161.329 130.16 161.489 131.925C161.625 133.422 162.664 134.639 163.534 135.51L163.537 135.513C164.489 136.462 165.442 137.428 166.401 138.401C169.224 141.263 172.102 144.183 175.182 146.88L175.182 146.88C175.264 146.951 175.345 147.022 175.425 147.092C176.533 148.063 177.465 148.88 178.277 149.467C179.164 150.109 180.103 150.626 181.215 150.752C182.33 150.879 183.363 150.583 184.377 150.145C185.359 149.721 186.523 149.072 187.925 148.289L187.988 148.254L187.996 148.25C188.168 148.153 188.346 148.063 188.574 147.949L188.636 147.918C188.875 147.798 189.161 147.653 189.456 147.48M164.881 129.348L163.902 127.863C163.936 127.841 164.019 127.772 164.201 127.554C164.231 127.518 164.274 127.464 164.326 127.4C164.477 127.213 164.7 126.936 164.892 126.73L164.902 126.719L164.912 126.709C165.8 125.789 166.179 125.021 166.257 124.404C166.326 123.856 166.191 123.154 165.415 122.227C164.628 121.3 163.824 120.888 163.048 120.785C162.25 120.679 161.256 120.87 160.066 121.567L159.974 121.621C158.825 122.294 157.84 122.871 157.009 123.25C156.152 123.64 155.191 123.951 154.146 123.796C153.084 123.639 152.265 123.052 151.577 122.405C150.902 121.769 150.16 120.883 149.301 119.851L149.3 119.851C147.2 117.326 145.092 114.682 142.998 112.054C141.233 109.838 139.478 107.635 137.744 105.526C137.13 104.783 136.342 103.645 136.567 102.292C136.802 100.872 137.986 100.086 138.922 99.6156C140.04 99.0447 141.006 98.1019 141.933 96.9241C142.538 96.1469 142.826 95.4925 142.891 94.9494C142.948 94.4665 142.851 93.9064 142.325 93.2047C141.697 92.3686 141.079 91.8617 140.488 91.6171C139.944 91.3913 139.288 91.33 138.408 91.6384L138.399 91.6415L138.39 91.6445C136.767 92.1936 135.204 92.9388 133.528 93.7399L133.519 93.7443L133.51 93.7486C132.595 94.173 131.537 94.4361 130.435 94.1269C129.338 93.8192 128.565 93.0471 127.993 92.2106L127.991 92.2081C123.757 86.0033 120.05 79.51 116.79 72.7577C116.301 71.7663 115.923 70.5159 116.387 69.2581C116.86 67.9765 117.99 67.2639 119.111 66.8326L119.124 66.8273L119.138 66.8222C120.518 66.3175 121.676 65.657 122.517 64.7269L122.523 64.7211L122.528 64.7154C122.572 64.6672 122.616 64.6199 122.659 64.5735C123.364 63.8082 123.855 63.2749 124.122 62.7273C124.242 62.4809 124.276 62.3025 124.273 62.1613C124.271 62.0288 124.235 61.8202 124.044 61.5083C123.487 60.5951 122.85 59.9415 122.158 59.5587C121.496 59.1927 120.686 59.0168 119.629 59.21L119.614 59.2126L119.599 59.215C119.267 59.2701 119.023 59.315 118.795 59.3745L118.785 59.3771L118.775 59.3795C116.572 59.9271 114.477 59.8778 112.658 58.9645C110.833 58.0487 109.562 56.4036 108.732 54.3171C108.731 54.3161 108.731 54.3151 108.73 54.3141L108.674 54.173C107.742 51.8522 106.989 49.9737 106.546 48.4265C106.09 46.8309 105.888 45.3396 106.295 43.8674C106.703 42.3938 107.645 41.2168 108.87 40.0795C110.082 38.9538 111.756 37.703 113.845 36.1485C129.182 24.7092 146.027 15.9761 165.375 12.8546L165.375 12.8546C176.34 11.0868 187.385 10.832 198.545 11.636L198.546 11.6361C223.248 13.4327 244.68 22.9823 263.075 38.3473C284.868 56.5493 298.299 80.0826 302.955 108.111L302.956 108.12C303.404 110.902 303.541 113.665 303.628 116.404C303.646 116.974 303.662 117.543 303.678 118.11C303.712 119.288 303.745 120.464 303.797 121.651L303.979 121.527L304.068 124.769C304.829 152.72 295.475 177.649 277.362 199.508C276.452 200.606 275.684 201.532 274.986 202.214C274.272 202.911 273.486 203.505 272.487 203.782C271.488 204.059 270.51 203.954 269.543 203.727C268.602 203.505 267.477 203.115 266.148 202.654L266.143 202.652C266.14 202.652 266.138 202.651 266.135 202.65C265.097 202.299 264.061 201.924 263.047 201.556L263.046 201.556C263.045 201.555 263.044 201.555 263.043 201.555C262.636 201.41 262.188 201.286 261.671 201.149C261.61 201.133 261.549 201.117 261.486 201.1C261.035 200.981 260.531 200.849 260.044 200.693C258.951 200.344 257.633 199.794 256.664 198.639C256.028 197.884 255.738 197.029 255.768 196.143C255.795 195.335 256.085 194.632 256.333 194.124C256.462 193.861 256.602 193.606 256.724 193.387L256.774 193.296C256.881 193.104 256.974 192.939 257.06 192.772C257.264 192.378 257.344 192.144 257.366 191.989L257.368 191.977C257.563 190.678 257.519 189.707 257.262 188.992C257.033 188.353 256.586 187.777 255.611 187.315L255.599 187.309C254.713 186.88 254.063 186.941 253.452 187.206C252.734 187.519 251.988 188.16 251.136 189.084L251.115 189.107L251.109 189.114C251.107 189.116 251.104 189.121 251.099 189.127C251.086 189.146 251.062 189.182 251.02 189.245L251.005 189.268C250.925 189.391 250.753 189.654 250.513 189.898C250.429 189.986 250.312 190.167 250.158 190.554C250.083 190.744 250.013 190.947 249.929 191.191L249.918 191.223C249.841 191.447 249.751 191.709 249.651 191.966C249.448 192.484 249.129 193.186 248.546 193.758C247.897 194.395 247.046 194.753 246.036 194.767C244.739 194.786 243.564 194.272 242.663 193.801C242.228 193.572 241.798 193.321 241.413 193.096L241.335 193.05C240.914 192.804 240.546 192.591 240.194 192.412L240.184 192.407C237.873 191.219 235.579 190.028 233.288 188.839C230.107 187.188 226.933 185.54 223.737 183.912C223.736 183.911 223.736 183.911 223.735 183.911L224.543 182.326C222.861 181.476 222.248 180.586 223.529 178.874L189.456 147.48M189.456 147.48C190.172 147.082 190.658 147.05 191.012 147.123C191.401 147.203 191.898 147.464 192.513 148.114L192.518 148.119C193.717 149.374 193.939 150.008 193.921 150.528C193.898 151.188 193.479 152.246 191.912 154.284L191.908 154.29C190.903 155.608 190.167 157.088 190.428 158.702C190.688 160.303 191.838 161.452 193.094 162.349C195.53 164.101 197.943 165.899 200.37 167.708L200.376 167.712C202.798 169.518 205.234 171.333 207.698 173.105L207.701 173.107C208.592 173.745 209.383 174.311 210.065 174.686C210.753 175.063 211.62 175.414 212.617 175.263C213.596 175.114 214.327 174.537 214.885 173.996C215.426 173.472 216.03 172.75 216.715 171.931L216.794 171.837L216.797 171.833C217.019 171.566 217.206 171.381 217.437 171.151C217.608 170.981 217.803 170.787 218.053 170.519C218.881 169.675 219.575 169.337 220.151 169.261C220.706 169.187 221.437 169.317 222.433 169.998L222.441 170.003L222.448 170.008C223.513 170.721 223.999 171.396 224.184 171.989C224.364 172.562 224.348 173.334 223.844 174.435L189.456 147.48ZM179.501 241.389L179.495 241.415C129.366 242.27 81.0294 199.383 71.7671 146.432L73.5194 146.126L71.7671 146.432C66.1245 114.163 73.234 85.0328 92.5096 58.6154C93.1214 57.7707 93.7875 56.9875 94.4216 56.2547C94.5177 56.1437 94.6128 56.0341 94.707 55.9255C95.2485 55.3014 95.7595 54.7125 96.2446 54.0963C96.5733 53.6766 96.9699 53.2569 97.4522 52.9666C97.975 52.6521 98.6921 52.4429 99.475 52.6829C100.186 52.9008 100.632 53.3965 100.888 53.7605C101.154 54.1381 101.349 54.5671 101.5 54.9578L101.503 54.9633L101.504 54.9683C102.424 57.3653 103.347 59.7716 104.244 62.1795C104.722 63.4557 104.634 64.6269 104.194 65.6671C103.797 66.6074 103.129 67.3867 102.611 67.9748L102.61 67.9759C102.213 68.4262 101.745 68.8314 101.376 69.1501L101.327 69.1925C100.913 69.5513 100.607 69.8212 100.369 70.0929C100.139 70.3542 100.058 70.5251 100.028 70.634C100.008 70.711 99.9831 70.8563 100.091 71.1494C100.644 72.6318 102.356 73.4673 104.199 73.3999L104.204 73.3997C106.545 73.3214 108.354 73.9279 109.791 75.1464C111.142 76.2927 112.018 77.8677 112.763 79.373C115.541 84.9503 118.753 90.3195 122.373 95.4304L122.377 95.4359C123.142 96.5236 123.765 97.7617 123.779 99.1627C123.794 100.619 123.152 101.902 122.115 103.063L122.112 103.066C121.393 103.866 120.957 104.532 120.796 105.129C120.665 105.614 120.674 106.186 121.209 106.994L121.213 107.001L121.218 107.008C121.831 107.954 122.506 108.436 123.173 108.658C123.856 108.884 124.702 108.893 125.729 108.592C127.289 108.134 128.72 108.112 130.052 108.722C131.305 109.295 132.221 110.321 133.005 111.364L133.005 111.364C137.097 116.812 141.452 122.113 145.878 127.384L179.501 241.389ZM179.501 241.389C209.113 240.791 228.623 236.148 246.586 225.643L246.588 225.642C247.27 225.242 247.957 224.842 248.648 224.441C253.283 221.747 258.067 218.967 262.285 215.332C262.384 215.248 262.439 215.205 262.508 215.151C262.583 215.093 262.675 215.021 262.858 214.869C263.091 214.676 263.423 214.385 263.697 214.03C263.949 213.704 264.369 213.046 264.278 212.174C264.179 211.217 263.542 210.61 262.992 210.273C260.464 208.719 257.674 207.602 255.033 206.631L255.03 206.63C254.27 206.352 253.52 206.315 252.809 206.494C252.133 206.665 251.597 207.005 251.199 207.31C250.887 207.549 250.58 207.833 250.35 208.046C250.301 208.091 250.256 208.132 250.215 208.17C249.936 208.425 249.763 208.564 249.624 208.647L249.62 208.649C249.29 208.846 248.998 209.028 248.73 209.196C248.06 209.614 247.539 209.94 246.949 210.16C246.295 210.404 245.747 210.432 245.06 210.075C244.17 209.607 243.679 208.997 243.406 208.309C243.117 207.58 243.032 206.653 243.172 205.548C243.301 204.546 243.265 203.476 242.751 202.491C242.225 201.485 241.347 200.847 240.364 200.412C233.215 197.182 226.317 193.516 219.644 189.415L219.643 189.413C219.04 189.044 218.193 188.591 217.197 188.549C216.076 188.502 215.1 188.976 214.281 189.786C213.393 190.66 212.56 191.238 211.776 191.486C211.071 191.708 210.307 191.699 209.365 191.182C208.596 190.756 208.292 190.216 208.14 189.462C208 188.768 208.01 188.056 208.022 187.153C208.026 186.841 208.031 186.507 208.03 186.143L208.03 186.134L208.029 186.124C208.023 185.636 208.035 185.482 208.066 185.379L208.073 185.356L208.079 185.333C208.404 184.144 208.372 182.97 207.83 181.895C207.314 180.871 206.445 180.16 205.545 179.633C200.703 176.758 196.286 173.312 191.78 169.797C191.012 169.198 190.242 168.597 189.466 167.996C188.26 167.061 186.944 166.265 185.427 166.036C183.844 165.797 182.313 166.21 180.762 167.154M179.501 241.389L149.934 139.533C151.84 138.743 153.641 138.53 155.394 139.031C157.1 139.518 158.529 140.619 159.837 141.994M180.762 167.154C180.763 167.154 180.763 167.154 180.763 167.154L181.686 168.675L180.761 167.155C180.761 167.155 180.762 167.155 180.762 167.154ZM180.762 167.154C179.787 167.747 178.905 167.99 178.129 167.956C177.38 167.923 176.558 167.625 175.676 166.819L175.675 166.819C174.924 166.134 174.798 165.562 174.833 165.03C174.878 164.356 175.205 163.558 175.76 162.555L175.761 162.554C176.404 161.389 176.748 160.158 176.443 158.872C176.152 157.647 175.347 156.713 174.507 155.951M174.507 155.951C173.748 155.252 172.989 154.556 172.232 153.861C167.98 149.959 163.772 146.098 159.837 141.994M174.507 155.951C174.509 155.953 174.511 155.954 174.513 155.956L173.307 157.265L174.502 155.946C174.503 155.948 174.505 155.949 174.507 155.951ZM159.837 141.994C159.838 141.995 159.839 141.995 159.839 141.996L158.55 143.222L159.835 141.991C159.835 141.992 159.836 141.993 159.837 141.994ZM189.186 248.555C258.68 247.36 311.785 191.983 311.579 125.089C310.567 56.5835 255.017 2.64284 185.334 3.53675C114.059 4.45284 60.9109 62.3714 62.4526 128.78L189.186 248.555ZM189.186 248.555C118.938 249.735 64.0215 195.244 62.4526 128.781L189.186 248.555ZM176.563 145.724C181.346 149.914 181.352 149.919 187.121 146.701L176.563 145.724ZM174.476 168.133C172.203 166.06 173.059 163.763 174.204 161.693L174.476 168.133Z" stroke="#FF991B" stroke-width="3.55769"/>
<path d="M292.23 127.633L292.153 126.463C292.005 124.246 291.975 122.089 291.947 120.028C291.939 119.506 291.932 118.991 291.923 118.482C291.878 115.937 291.789 113.527 291.445 111.14C287.627 85.5896 275.931 64.081 256.667 47.2626L257.837 45.9226L256.667 47.2625C240.368 33.0317 221.37 24.1265 199.379 22.1877L292.23 127.633ZM292.23 127.633L292.356 129.53L294.007 128.43C293.845 153.356 285.08 175.527 268.775 194.966C265.282 199.133 265.209 199.133 260.174 197.278M292.23 127.633L260.174 197.278M292.23 127.633C292.252 152.434 283.643 174.472 267.412 193.823L267.412 193.823C266.518 194.89 265.924 195.589 265.43 196.066C264.95 196.53 264.716 196.629 264.595 196.661C264.474 196.693 264.227 196.723 263.59 196.561C262.93 196.394 262.081 196.085 260.789 195.609L260.782 195.606L260.775 195.604C259.857 195.274 258.937 194.92 257.994 194.558L257.985 194.555C257.461 194.356 256.923 194.2 256.447 194.065C256.387 194.048 256.329 194.031 256.271 194.015C255.846 193.895 255.473 193.789 255.115 193.667C254.288 193.386 253.843 193.113 253.588 192.795L253.582 192.787C253.569 192.77 253.559 192.757 253.552 192.747M292.23 127.633L253.552 192.747M260.174 197.278C259.235 196.941 258.295 196.58 257.355 196.218C256.856 196.029 256.322 195.878 255.787 195.727C254.413 195.338 253.032 194.946 252.2 193.906C251.349 192.855 251.927 191.834 252.521 190.786C252.852 190.2 253.189 189.605 253.284 188.993L260.174 197.278ZM253.552 192.747C253.562 192.689 253.599 192.548 253.737 192.27C253.816 192.113 253.908 191.946 254.024 191.742L254.067 191.666C254.166 191.49 254.282 191.286 254.39 191.081C254.633 190.62 254.927 189.993 255.041 189.272C255.277 187.809 255.331 186.251 254.842 184.807C254.328 183.285 253.269 182.061 251.627 181.238C249.895 180.358 248.244 180.394 246.777 181.018C245.43 181.592 244.334 182.623 243.471 183.547C243.247 183.776 243.086 184.019 243.012 184.13L242.998 184.152C242.952 184.221 242.929 184.254 242.921 184.265C242.376 184.824 242.062 185.484 241.858 185.989C241.752 186.25 241.659 186.512 241.582 186.731C241.5 186.963 241.435 187.148 241.366 187.319C241.299 187.488 241.243 187.605 241.194 187.688C241.181 187.711 241.17 187.729 241.16 187.744C240.859 187.742 240.414 187.605 239.704 187.215C239.379 187.035 239.049 186.833 238.679 186.606L238.626 186.573C238.251 186.344 237.831 186.087 237.404 185.859C235.317 184.731 233.222 183.588 231.124 182.443C228.192 180.844 225.254 179.241 222.322 177.67L222.316 177.667C222.083 177.543 221.919 177.44 221.806 177.358C221.85 177.282 221.915 177.184 222.007 177.062C222.007 177.062 222.008 177.061 222.008 177.061L220.59 175.986C221.224 175.155 221.679 174.16 222.128 173.177C222.226 172.964 222.323 172.752 222.421 172.542C223.626 169.965 222.975 167.917 220.638 166.28M253.552 192.747L217.188 163.499C215.633 163.687 214.314 164.533 213.205 165.656L213.191 165.67L213.178 165.684C213.102 165.764 212.988 165.878 212.854 166.012C212.55 166.316 212.143 166.722 211.861 167.057M220.638 166.28L221.674 164.833C221.671 164.831 221.669 164.83 221.667 164.828C221.664 164.826 221.662 164.825 221.659 164.823L220.638 166.28ZM220.638 166.28C218.35 164.642 216.35 165.003 214.471 166.906C214.317 167.068 214.157 167.228 213.996 167.387C213.728 167.653 213.459 167.92 213.218 168.206M213.218 168.206L211.861 167.057M213.218 168.206L211.857 167.06C211.859 167.059 211.86 167.058 211.861 167.057M213.218 168.206L213.193 168.236C210.423 171.507 210.389 171.547 207.026 169.025M211.861 167.057L209.911 168.887C209.506 168.653 208.969 168.259 208.096 167.604L207.026 169.025M207.026 169.025C204.786 167.339 202.569 165.611 200.352 163.883C198.136 162.155 195.92 160.427 193.679 158.741L208.096 167.604M207.026 169.025L208.093 167.602C208.094 167.603 208.095 167.603 208.096 167.604M208.096 167.604C205.869 165.929 203.665 164.21 201.446 162.48L201.44 162.475C199.227 160.75 197.001 159.014 194.749 157.319L194.744 157.316C193.809 156.617 193.691 156.241 193.675 156.127C193.659 156.022 193.654 155.608 194.411 154.627M208.096 167.604L157.794 120.002C157.818 120.004 157.996 120.004 158.507 119.776C159.1 119.512 159.864 119.074 161.037 118.397L161.037 118.397C162.623 117.483 164.317 117.033 166.001 117.285C167.705 117.54 169.165 118.479 170.318 119.902L170.324 119.909C171.488 121.36 172.032 122.951 171.804 124.607C171.585 126.193 170.696 127.551 169.594 128.684C169.503 128.781 169.44 128.859 169.349 128.971C169.283 129.054 169.201 129.155 169.082 129.296C168.86 129.559 168.518 129.941 168.05 130.245L168.046 130.248C167.595 130.539 167.414 130.75 167.351 130.846C167.341 130.861 167.335 130.873 167.33 130.881C167.338 130.919 167.369 131.028 167.489 131.223C167.637 131.465 167.874 131.761 168.222 132.125C169.134 133.075 170.029 134.023 170.918 134.965C173.463 137.662 175.958 140.306 178.666 142.784C178.666 142.784 178.666 142.784 178.666 142.784L178.808 142.914C179.899 143.913 180.635 144.587 181.244 145.048C181.865 145.517 182.156 145.608 182.322 145.629C182.484 145.65 182.784 145.639 183.491 145.34C184.217 145.034 185.14 144.531 186.534 143.766C186.769 143.636 187.008 143.518 187.206 143.421L187.27 143.389C187.495 143.278 187.676 143.187 187.849 143.087L187.865 143.078L187.881 143.069C189.111 142.391 190.409 142.113 191.718 142.406C192.992 142.69 194.029 143.46 194.875 144.394C196.104 145.738 197.13 147.234 197.037 149.17C196.951 150.969 195.902 152.712 194.411 154.627M194.411 154.627C194.411 154.627 194.412 154.626 194.413 154.625L193.004 153.538L194.408 154.631C194.409 154.63 194.41 154.629 194.411 154.627ZM244.201 185.5C243.736 185.974 243.492 186.666 243.253 187.342C242.861 188.453 242.483 189.522 241.165 189.522C240.03 189.522 238.883 188.818 237.76 188.129C237.358 187.882 236.958 187.637 236.564 187.427C234.459 186.29 232.359 185.144 230.26 183.998L244.201 185.5ZM244.201 185.5C244.309 185.392 244.394 185.265 244.478 185.139C244.562 185.012 244.647 184.886 244.755 184.778L244.201 185.5ZM123.179 43.4291L123.178 43.4302C121.173 44.9024 119.786 45.9315 118.821 46.8172C117.869 47.6904 117.517 48.2604 117.377 48.7469C117.237 49.237 117.233 49.9149 117.569 51.1748C117.909 52.4506 118.522 54.0707 119.403 56.3957L119.405 56.4006C119.945 57.8391 120.638 58.6012 121.359 58.9816C122.08 59.3624 123.109 59.5086 124.619 59.1514C124.984 59.0608 125.334 59.0035 125.647 58.9553C127.373 58.6633 128.925 58.9645 130.243 59.7301C131.533 60.4793 132.495 61.6109 133.203 62.8278C133.641 63.582 133.871 64.3675 133.875 65.1696C133.879 65.9634 133.662 66.6649 133.367 67.2588C132.874 68.2514 132.057 69.1194 131.484 69.7288C131.423 69.7938 131.364 69.8559 131.309 69.9149C130.012 71.3294 128.378 72.178 126.808 72.7385C126.524 72.8459 126.375 72.9354 126.302 72.9891C126.32 73.0955 126.372 73.2807 126.505 73.5634L126.509 73.5711L126.512 73.5789C129.369 79.8148 132.628 85.806 136.358 91.531L123.179 43.4291ZM123.179 43.4291C137.194 33.1113 152.346 25.4431 169.536 22.8735M123.179 43.4291L169.536 22.8735M149.493 92.5268L149.494 92.5286C150.429 93.8337 150.797 95.2316 150.613 96.6432C150.436 97.9972 149.774 99.1843 148.987 100.182L148.982 100.188C147.971 101.458 146.695 102.769 145.013 103.61L145.003 103.614C144.948 103.642 144.898 103.667 144.853 103.692C144.897 103.755 144.95 103.825 145.011 103.903L145.013 103.906C146.699 106.05 148.29 108.14 149.871 110.216C151.712 112.635 153.539 115.035 155.487 117.482C156.31 118.515 156.843 119.17 157.278 119.599C157.609 119.925 157.761 119.991 157.793 120.002L149.493 92.5268ZM149.493 92.5268C148.707 91.4322 147.701 90.4383 146.41 89.8727C145.073 89.2872 143.591 89.2321 142.04 89.7575C140.326 90.3209 138.705 91.0807 137.194 91.7884L137.161 91.8043M149.493 92.5268L137.161 91.8043M179.062 230.641L179.068 230.616C206.075 230.449 223.522 226.412 239.577 217.174C240.231 216.796 240.882 216.424 241.529 216.053C245.823 213.596 249.937 211.242 253.591 208.153C251.884 207.195 250.016 206.409 248.084 205.655C248.084 205.655 248.084 205.655 248.084 205.655L248.73 203.998C247.598 203.559 246.845 204.245 246.097 204.927L179.062 230.641ZM179.062 230.641C134.693 230.747 91.9109 191.349 84.2736 143.024C79.6275 113.614 86.3202 87.3101 103.92 63.5029L103.924 63.4976C104.404 62.8422 104.944 62.2116 105.535 61.537C105.619 61.4413 105.704 61.3443 105.79 61.2462C106.07 60.928 106.36 60.5978 106.65 60.2578C107.355 62.2075 108.055 64.1511 108.737 66.0938L108.739 66.0979C108.859 66.4373 108.824 66.6296 108.735 66.8368C108.603 67.1412 108.337 67.4906 107.836 68.0528C107.63 68.2839 107.359 68.5187 106.964 68.8561L106.941 68.8765C106.588 69.1778 106.131 69.5692 105.734 70.016C105.318 70.4838 104.888 71.0985 104.668 71.8855C104.44 72.7024 104.478 73.5646 104.784 74.446L104.786 74.4507C105.953 77.7793 109.31 78.9733 111.85 78.9163C113.288 78.888 114.081 79.2591 114.656 79.7696C115.318 80.3561 115.859 81.2677 116.515 82.6638L116.517 82.6676C119.085 88.0958 122.069 93.3283 125.444 98.3163C125.973 99.1056 126.102 99.5787 126.101 99.8834C126.1 100.134 126.011 100.542 125.408 101.209C124.632 102.063 123.778 103.167 123.4 104.515C122.991 105.967 123.185 107.511 124.157 109.055C125.058 110.508 126.256 111.538 127.709 112.051C129.149 112.559 130.668 112.5 132.125 112.088C133.038 111.83 133.457 111.933 133.714 112.057C134.056 112.222 134.473 112.596 135.111 113.485C135.111 113.485 135.111 113.485 135.111 113.485L136.556 112.448L179.062 230.641ZM246.016 207.243C245.861 207.333 245.685 207.442 245.492 207.562C244.793 207.993 243.877 208.559 242.972 208.888C241.642 209.372 240.088 209.477 238.431 208.569L238.426 208.566C236.901 207.724 235.897 206.509 235.361 205.079C234.841 203.689 234.799 202.197 234.994 200.791L234.995 200.788C235.078 200.193 234.999 199.99 234.974 199.94L234.973 199.939C234.96 199.913 234.884 199.759 234.416 199.541L234.408 199.538L234.401 199.534C227.707 196.346 221.257 192.745 215.027 188.731C214.817 188.596 214.666 188.514 214.553 188.466C214.516 188.451 214.487 188.44 214.466 188.434C214.432 188.456 214.373 188.5 214.292 188.579L214.29 188.581C213.286 189.559 212.044 190.514 210.57 190.965C209.012 191.441 207.334 191.309 205.656 190.341L205.652 190.339C203.908 189.327 203.158 187.842 202.883 186.35C202.689 185.298 202.724 184.121 202.751 183.206C202.757 182.977 202.764 182.765 202.766 182.576C202.766 182.559 202.766 182.542 202.766 182.524C202.765 182.158 202.764 181.521 202.958 180.88C203.091 180.404 203.02 180.205 202.976 180.114C202.911 179.977 202.726 179.733 202.193 179.405L202.183 179.399C197.547 176.513 193.323 173.065 189.214 169.713C188.52 169.146 187.828 168.582 187.139 168.023L187.137 168.022C186.196 167.258 185.547 166.934 185.015 166.845C184.553 166.767 183.95 166.829 183.006 167.396L183.003 167.397C181.679 168.189 180.188 168.684 178.616 168.591C177.016 168.497 175.523 167.804 174.213 166.555M246.016 207.243L175.272 159.222L173.722 158.35C173.162 159.346 172.514 160.651 172.4 162.086C172.275 163.658 172.8 165.208 174.213 166.555M246.016 207.243C246.476 206.974 246.862 206.634 247.134 206.389C247.204 206.325 247.268 206.267 247.326 206.214C247.53 206.028 247.671 205.9 247.825 205.784C247.946 205.693 248.016 205.656 248.047 205.642L246.016 207.243ZM174.213 166.555L175.441 165.268L174.214 166.556C174.214 166.555 174.213 166.555 174.213 166.555ZM169.536 22.8735C179.371 21.4045 189.299 21.3064 199.377 22.1876L169.536 22.8735ZM137.161 91.8043C136.9 91.9218 136.762 91.9452 136.708 91.9489C136.662 91.9161 136.543 91.8128 136.36 91.5335L137.161 91.8043ZM305.994 126.701L305.994 126.691L305.994 126.681C305.945 60.4895 253.823 7.6066 187.586 7.53324C119.827 7.45987 68.5142 62.7103 69.1011 126.915L69.1011 126.916C69.7125 191.167 121.223 244.558 187.998 244.362H187.999C254.07 244.142 305.309 191.333 305.994 126.701ZM126.24 73.0434C126.24 73.0433 126.242 73.0409 126.246 73.0363C126.242 73.0411 126.24 73.0434 126.24 73.0434ZM146.303 138.625C146.304 138.626 146.305 138.627 146.306 138.629L147.735 137.569L146.3 138.621C146.301 138.622 146.302 138.624 146.303 138.625ZM254.535 207.361C254.536 207.361 254.536 207.361 254.535 207.362C254.535 207.362 254.535 207.362 254.535 207.362L254.535 207.361ZM106.138 58.9318C106.139 58.9325 106.139 58.9333 106.14 58.9341C106.134 58.9258 106.133 58.9242 106.138 58.9318ZM136.681 91.9486C136.681 91.9484 136.684 91.9484 136.69 91.9494C136.684 91.9493 136.681 91.9488 136.681 91.9486ZM136.725 91.9597C136.728 91.9611 136.73 91.9621 136.73 91.9622C136.73 91.9623 136.728 91.9616 136.725 91.9597ZM147.141 130.957L148.482 132.126L147.143 130.954C147.143 130.955 147.142 130.955 147.142 130.956C147.141 130.956 147.141 130.957 147.141 130.957Z" fill="#FF991B" stroke="#3C3C3C" stroke-width="3.55769"/>
<path d="M80.2598 663.622V692.13H75.5837V672.605L66.8879 692.13H63.6474L54.9106 672.605V692.13H50.2345V663.622H55.2797L65.2882 685.977L75.2556 663.622H80.2598ZM103.797 686.305H91.8612L89.8103 692.13H84.9291L95.1426 663.581H100.557L110.771 692.13H105.848L103.797 686.305ZM102.485 682.491L97.8498 669.242L93.1737 682.491H102.485ZM133.834 663.622V667.437H126.245V692.13H121.569V667.437H113.94V663.622H133.834ZM137.216 677.815C137.216 675.025 137.858 672.523 139.143 670.308C140.456 668.093 142.22 666.371 144.435 665.14C146.677 663.882 149.125 663.253 151.777 663.253C154.812 663.253 157.506 664.005 159.858 665.509C162.237 666.986 163.959 669.091 165.026 671.826H159.406C158.668 670.322 157.643 669.201 156.33 668.462C155.017 667.724 153.5 667.355 151.777 667.355C149.89 667.355 148.208 667.779 146.732 668.627C145.255 669.474 144.093 670.691 143.245 672.277C142.425 673.863 142.015 675.709 142.015 677.815C142.015 679.92 142.425 681.766 143.245 683.352C144.093 684.938 145.255 686.169 146.732 687.044C148.208 687.891 149.89 688.315 151.777 688.315C153.5 688.315 155.017 687.946 156.33 687.208C157.643 686.469 158.668 685.348 159.406 683.844H165.026C163.959 686.579 162.237 688.684 159.858 690.161C157.506 691.638 154.812 692.376 151.777 692.376C149.097 692.376 146.65 691.761 144.435 690.53C142.22 689.272 140.456 687.536 139.143 685.321C137.858 683.106 137.216 680.604 137.216 677.815ZM193.469 663.622V692.13H188.793V679.66H175.38V692.13H170.704V663.622H175.38V675.846H188.793V663.622H193.469ZM215.367 663.622V692.13H210.691V663.622H215.367ZM231.104 692.417C229.19 692.417 227.467 692.089 225.936 691.433C224.405 690.749 223.201 689.792 222.326 688.561C221.451 687.331 221.014 685.895 221.014 684.254H226.018C226.127 685.485 226.606 686.497 227.454 687.29C228.329 688.083 229.545 688.479 231.104 688.479C232.718 688.479 233.975 688.096 234.878 687.331C235.78 686.538 236.231 685.526 236.231 684.295C236.231 683.338 235.944 682.559 235.37 681.957C234.823 681.356 234.126 680.891 233.278 680.563C232.458 680.235 231.309 679.879 229.833 679.496C227.973 679.004 226.455 678.512 225.28 678.02C224.131 677.5 223.147 676.707 222.326 675.641C221.506 674.574 221.096 673.152 221.096 671.375C221.096 669.734 221.506 668.298 222.326 667.068C223.147 665.837 224.295 664.894 225.772 664.238C227.248 663.581 228.958 663.253 230.899 663.253C233.661 663.253 235.917 663.95 237.667 665.345C239.444 666.712 240.429 668.599 240.62 671.006H235.452C235.37 669.966 234.878 669.078 233.975 668.339C233.073 667.601 231.883 667.232 230.407 667.232C229.067 667.232 227.973 667.574 227.125 668.257C226.278 668.941 225.854 669.925 225.854 671.211C225.854 672.086 226.114 672.81 226.633 673.385C227.18 673.932 227.864 674.369 228.684 674.697C229.504 675.025 230.626 675.381 232.048 675.764C233.934 676.283 235.466 676.803 236.642 677.322C237.845 677.842 238.857 678.649 239.677 679.742C240.525 680.809 240.948 682.245 240.948 684.049C240.948 685.499 240.552 686.866 239.759 688.151C238.993 689.436 237.858 690.475 236.354 691.269C234.878 692.034 233.128 692.417 231.104 692.417ZM270.534 692.417C267.882 692.417 265.434 691.802 263.192 690.571C260.977 689.313 259.213 687.577 257.901 685.362C256.615 683.12 255.973 680.604 255.973 677.815C255.973 675.025 256.615 672.523 257.901 670.308C259.213 668.093 260.977 666.371 263.192 665.14C265.434 663.882 267.882 663.253 270.534 663.253C273.214 663.253 275.661 663.882 277.876 665.14C280.119 666.371 281.882 668.093 283.168 670.308C284.453 672.523 285.096 675.025 285.096 677.815C285.096 680.604 284.453 683.12 283.168 685.362C281.882 687.577 280.119 689.313 277.876 690.571C275.661 691.802 273.214 692.417 270.534 692.417ZM270.534 688.356C272.421 688.356 274.103 687.932 275.579 687.085C277.056 686.21 278.204 684.979 279.025 683.393C279.873 681.78 280.296 679.92 280.296 677.815C280.296 675.709 279.873 673.863 279.025 672.277C278.204 670.691 277.056 669.474 275.579 668.627C274.103 667.779 272.421 667.355 270.534 667.355C268.647 667.355 266.966 667.779 265.489 668.627C264.012 669.474 262.85 670.691 262.002 672.277C261.182 673.863 260.772 675.709 260.772 677.815C260.772 679.92 261.182 681.78 262.002 683.393C262.85 684.979 264.012 686.21 265.489 687.085C266.966 687.932 268.647 688.356 270.534 688.356ZM313.323 692.13H308.647L294.578 670.841V692.13H289.902V663.581H294.578L308.647 684.829V663.581H313.323V692.13ZM325.535 663.622L325.001 683.516H321.105L320.571 663.622H325.535ZM323.197 692.417C322.349 692.417 321.638 692.13 321.064 691.556C320.489 690.981 320.202 690.27 320.202 689.423C320.202 688.575 320.489 687.864 321.064 687.29C321.638 686.715 322.349 686.428 323.197 686.428C324.017 686.428 324.714 686.715 325.288 687.29C325.863 687.864 326.15 688.575 326.15 689.423C326.15 690.27 325.863 690.981 325.288 691.556C324.714 692.13 324.017 692.417 323.197 692.417Z" fill="#FF991B"/>
</svg>
