<svg width="105" height="203" viewBox="0 0 105 203" fill="none" xmlns="http://www.w3.org/2000/svg">
<path d="M26.9532 91.5117H25.3548V101.432H26.9532C27.1185 101.432 27.2839 101.598 27.2839 101.763V106.613C27.2839 106.779 27.1185 106.944 26.9532 106.944H18.245C18.0797 106.944 17.9143 106.779 17.9143 106.613V101.763C17.9143 101.598 18.0797 101.432 18.245 101.432H19.8433V97.2437L14.8003 105.869C14.635 106.145 14.3594 106.117 14.2216 105.842L9.92264 97.8775V101.432H11.521C11.6863 101.432 11.8517 101.598 11.8517 101.763V106.613C11.8517 106.779 11.6863 106.944 11.521 106.944H2.81281C2.64746 106.944 2.48212 106.779 2.48212 106.613V101.763C2.48212 101.598 2.64746 101.432 2.81281 101.432H4.41114V91.5117H2.81281C2.64746 91.5117 2.48212 91.3464 2.48212 91.181V86.3309C2.48212 86.1656 2.64746 86.0002 2.81281 86.0002H9.39905C9.45417 86.0002 9.64707 86.1104 9.67463 86.1656L14.6625 95.4249L20.0914 86.1656C20.1465 86.1104 20.3118 86.0002 20.3945 86.0002H26.9532C27.1185 86.0002 27.2839 86.1656 27.2839 86.3309V91.181C27.2839 91.3464 27.1185 91.5117 26.9532 91.5117ZM25.0242 91.181H26.9532V86.3309H20.3945L14.6625 96.0863L9.39905 86.3309H2.81281V91.181H4.74183V101.763H2.81281V106.613H11.521V101.763H9.59195V96.5547L14.4972 105.704L20.174 96.0311V101.763H18.245V106.613H26.9532V101.763H25.0242V91.181ZM26.4571 90.685H24.5281V102.259H26.4571V106.117H18.741V102.259H20.6701V94.2123L14.5247 104.684L9.09592 94.5981V102.259H11.0249V106.117H3.30884V102.259H5.23787V90.685H3.30884V86.8269H9.09592L14.635 97.1059L20.6701 86.8269H26.4571V90.685ZM40.007 86.2207L45.8492 101.432H47.5578C47.7231 101.432 47.8885 101.598 47.8885 101.763V106.613C47.8885 106.779 47.7231 106.944 47.5578 106.944H38.8496C38.6843 106.944 38.5189 106.779 38.5189 106.613V101.763C38.5189 101.598 38.6843 101.432 38.8496 101.432H39.9244L39.8693 101.295H35.3223L35.2672 101.432H35.9837C36.149 101.432 36.3143 101.598 36.3143 101.763V106.613C36.3143 106.779 36.149 106.944 35.9837 106.944H27.2755C27.1101 106.944 26.9448 106.779 26.9448 106.613V101.763C26.9448 101.598 27.1101 101.432 27.2755 101.432H29.3423L33.1452 91.5117H31.1335C30.9682 91.5117 30.8028 91.3464 30.8028 91.181V86.3309C30.8028 86.1656 30.9682 86.0002 31.1335 86.0002H39.6764C39.7866 86.0002 39.9519 86.1104 40.007 86.2207ZM45.6012 101.763L39.6764 86.3309H31.1335V91.181H33.6413L29.5903 101.763H27.2755V106.613H35.9837V101.763H34.7711L35.0743 100.964H40.1173L40.4204 101.763H38.8496V106.613H47.5578V101.763H45.6012ZM45.2705 102.259H47.0618V106.117H39.3457V102.259H41.1369L40.448 100.468H34.7436L34.0546 102.259H35.4876V106.117H27.7715V102.259H29.921L34.3578 90.685H31.6296V86.8269H39.3457L45.2705 102.259ZM36.2317 96.6098H38.9599L37.6095 93.0274L36.2317 96.6098ZM36.9482 96.1138L37.6095 94.4328L38.2434 96.1138H36.9482ZM37.6095 95.3422L37.4442 95.7831H37.7749L37.6095 95.3422ZM44.0952 86.0002H60.5195C60.6849 86.0002 60.8502 86.1656 60.8502 86.3309V93.1652C60.8502 93.3305 60.6849 93.4958 60.5195 93.4958H55.6694C55.5041 93.4958 55.3387 93.3305 55.3387 93.1652V91.5117H55.0631V101.432H56.6615C56.8268 101.432 56.9922 101.598 56.9922 101.763V106.613C56.9922 106.779 56.8268 106.944 56.6615 106.944H47.9533C47.788 106.944 47.6226 106.779 47.6226 106.613V101.763C47.6226 101.598 47.788 101.432 47.9533 101.432H49.5516V91.5117H49.2761V93.1652C49.2761 93.3305 49.1107 93.4958 48.9454 93.4958H44.0952C43.9299 93.4958 43.7646 93.3305 43.7646 93.1652V86.3309C43.7646 86.1656 43.9299 86.0002 44.0952 86.0002ZM60.5195 86.3309H44.0952V93.1652H48.9454V91.181H49.8823V101.763H47.9533V106.613H56.6615V101.763H54.7324V91.181H55.6694V93.1652H60.5195V86.3309ZM44.5913 86.8269H60.0235V92.6691H56.1654V90.685H54.2364V102.259H56.1654V106.117H48.4493V102.259H50.3784V90.685H48.4493V92.6691H44.5913V86.8269ZM67.1712 91.5117L66.0689 92.614V100.33L67.1712 101.432H69.0727L70.8364 99.6687C70.8639 99.6412 71.0293 99.5585 71.0844 99.5585H75.3834C75.5487 99.5585 75.714 99.7238 75.714 99.8892V102.452C75.714 102.507 75.6314 102.672 75.6314 102.7L71.4702 106.861C71.4702 106.861 71.4426 106.861 71.4151 106.861L71.3048 106.944C71.2773 106.944 71.2497 106.944 71.2497 106.944H65.0493C64.9942 106.944 64.8288 106.861 64.8013 106.861L60.6401 102.7C60.6401 102.672 60.5574 102.507 60.5574 102.452V90.4645C60.5574 90.4645 60.5574 90.437 60.5574 90.4094L60.6401 90.2992C60.6401 90.2716 60.6401 90.2441 60.6401 90.2441L64.8013 86.0829C64.8288 86.0829 64.9942 86.0002 65.0493 86.0002H71.2497C71.2497 86.0002 71.2773 86.0002 71.3048 86.0002L71.4151 86.0829C71.4426 86.0829 71.4702 86.0829 71.4702 86.0829L75.6314 90.2441C75.6314 90.2441 75.6314 90.2716 75.6314 90.2992L75.714 90.4094C75.714 90.437 75.714 90.4645 75.714 90.4645V93.1652C75.714 93.3305 75.5487 93.4958 75.3834 93.4958H71.2497C71.1946 93.4958 71.0293 93.4132 71.0017 93.3856L69.1002 91.5117H67.1712ZM65.7382 92.4762L67.061 91.181H69.238L71.2497 93.1652H75.3834V90.4645L71.2497 86.3309H65.0493L60.8881 90.4645V102.452L65.0493 106.613H71.2497L75.3834 102.452V99.8892H71.0844L69.238 101.763H67.061L65.7382 100.44V92.4762ZM66.8405 90.685L65.2422 92.2833V100.661L66.8405 102.259H69.4309L71.2773 100.385H74.8873V102.259L71.0293 106.117H65.2422L61.3841 102.259V90.685L65.2422 86.8269H71.0293L74.8873 90.685V92.6691H71.4426L69.4309 90.685H66.8405ZM94.0966 91.5117H92.4983V101.432H94.0966C94.262 101.432 94.4273 101.598 94.4273 101.763V106.613C94.4273 106.779 94.262 106.944 94.0966 106.944H85.3885C85.2231 106.944 85.0578 106.779 85.0578 106.613V101.763C85.0578 101.598 85.2231 101.432 85.3885 101.432H86.9868V99.2278H82.8532V101.432H84.4515C84.6168 101.432 84.7822 101.598 84.7822 101.763V106.613C84.7822 106.779 84.6168 106.944 84.4515 106.944H75.7433C75.578 106.944 75.4126 106.779 75.4126 106.613V101.763C75.4126 101.598 75.578 101.432 75.7433 101.432H77.3417V91.5117H75.7433C75.578 91.5117 75.4126 91.3464 75.4126 91.181V86.3309C75.4126 86.1656 75.578 86.0002 75.7433 86.0002H84.4515C84.6168 86.0002 84.7822 86.1656 84.7822 86.3309V91.181C84.7822 91.3464 84.6168 91.5117 84.4515 91.5117H82.8532V93.7163H86.9868V91.5117H85.3885C85.2231 91.5117 85.0578 91.3464 85.0578 91.181V86.3309C85.0578 86.1656 85.2231 86.0002 85.3885 86.0002H94.0966C94.262 86.0002 94.4273 86.1656 94.4273 86.3309V91.181C94.4273 91.3464 94.262 91.5117 94.0966 91.5117ZM92.1676 91.181H94.0966V86.3309H85.3885V91.181H87.3175V94.047H82.5225V91.181H84.4515V86.3309H75.7433V91.181H77.6724V101.763H75.7433V106.613H84.4515V101.763H82.5225V98.8971H87.3175V101.763H85.3885V106.613H94.0966V101.763H92.1676V91.181ZM93.6006 90.685H91.6716V102.259H93.6006V106.117H85.8845V102.259H87.8135V98.4011H82.0264V102.259H83.9555V106.117H76.2394V102.259H78.1684V90.685H76.2394V86.8269H83.9555V90.685H82.0264V94.543H87.8135V90.685H85.8845V86.8269H93.6006V90.685Z" fill="#FF991B"/>
<path d="M29.5524 114.51H54.8968C55.378 114.51 55.8592 114.991 55.8592 115.472V129.588C55.8592 130.07 55.378 130.551 54.8968 130.551H50.2449V162.392C50.2449 162.552 50.0043 163.033 50.0043 163.113L37.8936 175.224C37.8936 175.224 37.8134 175.224 37.7332 175.224L37.4124 175.465C37.3322 175.465 37.252 175.465 37.252 175.465H19.2062C19.0458 175.465 18.5646 175.224 18.4844 175.224L6.45384 163.113C6.37363 163.033 6.13302 162.552 6.13302 162.392V130.551H1.48122C1 130.551 0.518779 130.07 0.518779 129.588V115.472C0.518779 114.991 1 114.51 1.48122 114.51H26.8255C27.3067 114.51 27.788 114.991 27.788 115.472V129.588C27.788 130.07 27.3067 130.551 26.8255 130.551H22.1737V156.216L25.3819 159.424H30.9961L34.2042 156.216V130.551H29.5524C29.0712 130.551 28.59 130.07 28.59 129.588V115.472C28.59 114.991 29.0712 114.51 29.5524 114.51ZM54.8968 115.472H29.5524V129.588H35.1667V156.537L31.3971 160.386H25.061L21.2113 156.537V129.588H26.8255V115.472H1.48122V129.588H7.09547V162.392L19.2062 174.502H37.252L49.2825 162.392V129.588H54.8968V115.472ZM30.9961 116.916H53.4531V128.145H47.8388V161.83L36.6104 173.059H19.7676L8.53913 161.83V128.145H2.92488V116.916H25.3819V128.145H19.7676V157.178L24.4194 161.83H31.9585L36.6104 157.178V128.145H30.9961V116.916ZM55.9162 114.51H91.687C91.687 114.51 91.7672 114.51 91.8474 114.51L92.1682 114.751C92.2484 114.751 92.3286 114.751 92.3286 114.751L104.439 126.861C104.439 126.861 104.439 126.942 104.439 127.022L104.68 127.343C104.68 127.423 104.68 127.503 104.68 127.503V139.935C104.68 140.095 104.439 140.576 104.439 140.656L92.3286 152.687C92.2484 152.767 91.7672 153.008 91.687 153.008H76.6087V159.424H81.2605C81.7417 159.424 82.223 159.905 82.223 160.386V174.502C82.223 174.983 81.7417 175.465 81.2605 175.465H55.9162C55.435 175.465 54.9538 174.983 54.9538 174.502V160.386C54.9538 159.905 55.435 159.424 55.9162 159.424H60.568V130.551H55.9162C55.435 130.551 54.9538 130.07 54.9538 129.588V115.472C54.9538 114.991 55.435 114.51 55.9162 114.51ZM91.687 115.472H55.9162V129.588H61.5305V160.386H55.9162V174.502H81.2605V160.386H75.6463V152.045H91.687L103.717 139.935V127.503L91.687 115.472ZM91.0453 116.916L102.274 128.145V139.373L91.0453 150.602H74.2026V161.83H79.8168V173.059H57.3599V161.83H62.9741V128.145H57.3599V116.916H91.0453ZM91.0453 134.721V132.796L86.3935 128.145H74.2026V139.373H86.3935L91.0453 134.721ZM89.6017 134.08L85.8321 137.929H75.6463V129.588H85.8321L89.6017 133.358V134.08ZM85.4311 136.967L88.6392 133.759L85.4311 130.551H76.6087V136.967H85.4311Z" fill="#FF991B"/>
<path d="M85.8292 34.2038L85.8805 34.1692L85.9053 35.0803C86.1192 42.9392 83.49 49.9483 78.3988 56.0941M85.8292 34.2038L78.0137 55.7751M85.8292 34.2038C85.8145 33.8701 85.8052 33.5394 85.7959 33.2079C85.7914 33.0484 85.7869 32.8888 85.7818 32.7285C85.7572 31.9584 85.7186 31.1816 85.5929 30.3993L85.5924 30.3968C84.2839 22.5163 80.5088 15.8996 74.3831 10.7819C69.2126 6.46183 63.1884 3.77683 56.2453 3.27169L56.2449 3.27166C53.108 3.0456 50.0035 3.11723 46.9213 3.61427L46.9213 3.61428C41.4831 4.49193 36.7483 6.94728 32.4375 10.1635C31.8503 10.6007 31.3795 10.9524 31.0388 11.2689C30.6946 11.5887 30.4297 11.9196 30.3151 12.3339C30.2006 12.7477 30.2576 13.167 30.3858 13.6156C30.5101 14.0506 30.722 14.5787 30.9838 15.2312L30.9997 15.2709C30.9998 15.2711 30.9999 15.2714 31 15.2716C31.2334 15.8583 31.5906 16.3208 32.1035 16.5784C32.615 16.8352 33.2037 16.849 33.8231 16.6951L33.8231 16.6951L33.8286 16.6937C33.8927 16.6769 33.9614 16.6643 34.0548 16.6488L34.0548 16.6489L34.063 16.6474C34.36 16.5931 34.5878 16.6425 34.7737 16.7454C34.9682 16.8531 35.1475 17.0368 35.3041 17.2936C35.3576 17.3813 35.3678 17.44 35.3685 17.4773C35.3692 17.5171 35.3597 17.5673 35.3259 17.6366C35.251 17.7906 35.1128 17.9406 34.9146 18.1557C34.9026 18.1688 34.8903 18.1821 34.8778 18.1956L34.8749 18.1989C34.6385 18.4604 34.3129 18.6461 33.9251 18.788L33.9251 18.7879L33.9173 18.7909C33.6022 18.9122 33.2847 19.1125 33.1519 19.4728C33.0215 19.8264 33.1277 20.1779 33.2652 20.4566C34.1813 22.3551 35.2232 24.1807 36.4134 25.9253L36.4139 25.926C36.5749 26.1611 36.7922 26.3782 37.1004 26.4647C37.4101 26.5517 37.7077 26.4777 37.9648 26.3584L37.9648 26.3584L37.97 26.3559C38.4409 26.1307 38.8804 25.9212 39.3364 25.7668L39.3364 25.7668L39.3414 25.7651C39.5888 25.6784 39.7732 25.6956 39.9262 25.7591C40.0921 25.8279 40.2659 25.9704 40.4425 26.2055C40.5902 26.4028 40.6176 26.5603 40.6015 26.6962C40.5834 26.849 40.5022 27.0331 40.3322 27.2516C40.0718 27.5827 39.8003 27.8477 39.4859 28.0082C39.223 28.1404 38.8901 28.3615 38.8239 28.7607C38.7609 29.1406 38.982 29.4603 39.1544 29.6693C39.6419 30.2624 40.1355 30.8821 40.6318 31.5051C41.2203 32.244 41.8126 32.9875 42.403 33.6973L42.4032 33.6974C42.6448 33.9876 42.8532 34.2366 43.0431 34.4155C43.2363 34.5975 43.4665 34.7625 43.7652 34.8067C44.0589 34.8501 44.3289 34.7628 44.5699 34.6531C44.8035 34.5466 45.0802 34.3844 45.4032 34.1951L45.4292 34.1799C45.7638 33.9838 46.0432 33.9302 46.2673 33.96C46.4854 33.9891 46.7115 34.105 46.9328 34.3659C47.1508 34.6262 47.1887 34.8236 47.1693 34.9777C47.1475 35.1512 47.0407 35.3672 46.7912 35.6259L46.7912 35.6259L46.7857 35.6318C46.7316 35.6898 46.6689 35.7676 46.6265 35.8203C46.612 35.8383 46.5999 35.8533 46.5913 35.8636C46.5402 35.9249 46.5168 35.9442 46.5073 35.9504L46.7826 36.3679L46.5086 35.9496C46.0929 36.222 45.7843 36.5963 45.8292 37.0924C45.8674 37.513 46.1593 37.8552 46.404 38.1002L46.4048 38.1009C46.6724 38.3677 46.9402 38.6394 47.2099 38.9129C48.0033 39.7178 48.8123 40.5386 49.6779 41.2969L49.6779 41.2969C49.7009 41.3171 49.7237 41.337 49.7462 41.3567C50.0576 41.6297 50.3196 41.8593 50.5479 42.0245C50.7973 42.2048 51.061 42.3503 51.3737 42.3857C51.6873 42.4213 51.9774 42.3381 52.2627 42.2149C52.5385 42.0958 52.8657 41.9132 53.2599 41.6933L53.2776 41.6834L53.2798 41.6821C53.3281 41.6548 53.3782 41.6297 53.4424 41.5974L53.4597 41.5887C53.5268 41.555 53.6072 41.5142 53.6901 41.4657M85.8292 34.2038L53.0339 41.2468C53.0934 41.2132 53.1544 41.1825 53.2162 41.1515C53.2906 41.1141 53.3662 41.0762 53.4417 41.0318M78.3988 56.0941L78.0137 55.7751M78.3988 56.0941C78.3988 56.0941 78.3988 56.094 78.3988 56.094L78.0137 55.7751M78.3988 56.0941C78.1431 56.4029 77.9272 56.663 77.731 56.8547C77.5304 57.0508 77.3094 57.2178 77.0286 57.2957C76.7478 57.3735 76.4727 57.3442 76.201 57.2802C75.9365 57.2179 75.6203 57.1082 75.2467 56.9786L75.2453 56.9781M78.0137 55.7751C76.9677 57.0384 76.9457 57.0387 75.4053 56.5044M75.2453 56.9781L75.4053 56.5044M75.2453 56.9781C74.9528 56.8793 74.6611 56.7736 74.3755 56.67L74.3749 56.6697M75.2453 56.9781L75.2414 56.9768L75.4053 56.5044M75.4053 56.5044L74.3749 56.6697M74.3749 56.6697L74.5428 56.1988L74.3724 56.6688L74.3749 56.6697ZM74.3749 56.6697C74.2604 56.6289 74.1341 56.5941 73.9883 56.5554C73.9714 56.551 73.9541 56.5464 73.9366 56.5418C73.8097 56.5083 73.668 56.4709 73.5311 56.4273C73.2234 56.3291 72.8525 56.1741 72.5803 55.8486M74.3749 56.6697L68.1773 53.6529C67.532 53.321 66.8879 52.9865 66.2441 52.6522C65.3473 52.1866 64.451 51.7212 63.5523 51.2632M72.5803 55.8486C72.5809 55.8493 72.5814 55.85 72.582 55.8507L72.9638 55.5279L72.5803 55.8486ZM72.5803 55.8486C72.4019 55.6367 72.3208 55.3966 72.3291 55.148C72.3367 54.9208 72.4182 54.7233 72.488 54.5805C72.5242 54.5064 72.5636 54.4349 72.5979 54.3732C72.6341 54.308 72.6643 54.2544 72.6922 54.2004C72.7495 54.0897 72.7721 54.0237 72.7784 53.9802L72.7789 53.9767C72.8338 53.6116 72.8215 53.3386 72.7492 53.1373C72.6847 52.9577 72.559 52.7958 72.2851 52.6657L72.2817 52.6641C72.0325 52.5434 71.8498 52.5605 71.6783 52.6352C71.4764 52.7232 71.2668 52.9034 71.0274 53.1632L71.0214 53.1696L71.0196 53.1715M71.0196 53.1715C71.02 53.1709 71.0201 53.1706 71.0201 53.1706C71.0201 53.1706 71.0181 53.1729 71.0153 53.1758L71.0196 53.1715ZM71.0196 53.1715C71.0177 53.1742 71.0106 53.1842 70.9946 53.2084L70.9904 53.2148C70.9675 53.2499 70.9183 53.3252 70.8496 53.3947L70.494 53.0432L70.853 53.3912C70.8293 53.4157 70.796 53.4663 70.7524 53.5766C70.7313 53.6299 70.7115 53.6871 70.688 53.7557L70.6849 53.7647C70.6633 53.8276 70.638 53.9014 70.6098 53.9736C70.5528 54.1191 70.4631 54.3166 70.2991 54.4775C70.1167 54.6565 69.8777 54.7572 69.5937 54.7612C69.2291 54.7662 68.8987 54.6219 68.6457 54.4893C68.5233 54.4251 68.4025 54.3545 68.2942 54.2911L68.2723 54.2782C68.154 54.209 68.0505 54.1491 67.9515 54.099L67.9486 54.0975C67.299 53.7634 66.6539 53.4284 66.01 53.0941C65.116 52.6298 64.2242 52.1668 63.3262 51.7091M63.3262 51.7091C63.3264 51.7092 63.3266 51.7093 63.3269 51.7095L63.5523 51.2632M63.3262 51.7091C63.3259 51.7089 63.3256 51.7088 63.3253 51.7086L63.5523 51.2632M63.3262 51.7091C63.0849 51.5872 62.7595 51.3918 62.6293 51.0442C62.4808 50.6476 62.6546 50.2774 62.867 49.9932L62.8679 49.9921C63.0205 49.7893 63.1271 49.552 63.2585 49.2596C63.2894 49.1909 63.3216 49.1191 63.3562 49.044M63.5523 51.2632C63.0796 51.0243 62.9074 50.7741 63.2674 50.2927C63.4569 50.0409 63.5911 49.741 63.7239 49.4446C63.7526 49.3804 63.7813 49.3163 63.8104 49.253M63.3562 49.044C63.3561 49.0443 63.3559 49.0446 63.3558 49.0448L63.8104 49.253M63.3562 49.044L63.8104 49.253M63.3562 49.044C63.4976 48.7348 63.502 48.5179 63.4516 48.3567C63.3995 48.1901 63.2629 48.0002 62.9635 47.7997L62.9594 47.797C62.6794 47.6055 62.474 47.5688 62.3179 47.5896C62.156 47.6112 61.961 47.7061 61.7282 47.9436M63.8104 49.253C64.1664 48.4757 63.9598 47.8651 63.2416 47.3842C62.5381 46.9032 61.9309 47.0199 61.3668 47.598M61.7282 47.9436C61.7296 47.9422 61.731 47.9407 61.7324 47.9392L61.3668 47.598M61.7282 47.9436C61.6578 48.0189 61.6031 48.0733 61.5551 48.1211C61.4902 48.1856 61.4376 48.2379 61.3753 48.3128L61.3744 48.3138L61.3523 48.3403C61.1598 48.5705 60.9899 48.7737 60.8378 48.9211C60.6811 49.073 60.4755 49.2355 60.2003 49.2772C59.9199 49.3196 59.6763 49.2209 59.483 49.1149C59.2911 49.0096 59.0688 48.8505 58.8183 48.671L58.8176 48.6705C58.125 48.1723 57.4401 47.6617 56.7593 47.154L56.7579 47.153C56.0759 46.6445 55.3978 46.139 54.7132 45.6465M61.7282 47.9436C61.727 47.9448 61.7259 47.946 61.7247 47.9472L61.3668 47.598M61.3668 47.598C61.3208 47.6474 61.2727 47.6957 61.2244 47.7442C61.1439 47.8251 61.0631 47.9063 60.9909 47.993L54.7132 45.6465M54.7132 45.6465C54.7133 45.6466 54.7133 45.6466 54.7134 45.6466L55.0039 45.2397M54.7132 45.6465L59.1096 48.2646C58.4206 47.769 57.7387 47.2606 57.0568 46.7522C56.3749 46.2438 55.693 45.7354 55.0039 45.2397M54.7132 45.6465C54.7128 45.6462 54.7124 45.6459 54.712 45.6456L55.0039 45.2397M54.7132 45.6465C54.36 45.3943 54.0363 45.0711 53.9634 44.6209C53.8899 44.1674 54.0968 43.7513 54.3792 43.3808L54.3805 43.3791C54.821 42.8061 54.9388 42.5086 54.9452 42.3228C54.9503 42.1766 54.8878 41.9981 54.5509 41.6454L54.5494 41.6438C54.3764 41.4612 54.2367 41.3878 54.1274 41.3653C54.0279 41.3449 53.8915 41.3537 53.6901 41.4657M55.0039 45.2397C54.3594 44.7795 54.2654 44.355 54.7769 43.6838C55.663 42.531 55.627 42.0479 54.9124 41.3C54.4806 40.8441 54.0094 40.7135 53.4417 41.0318M53.6901 41.4657C53.6918 41.4647 53.6935 41.4637 53.6952 41.4627L53.4417 41.0318M53.6901 41.4657C53.6888 41.4664 53.6875 41.4672 53.6862 41.4679L53.4417 41.0318M31.6854 22.5392C31.2703 21.7005 30.8512 21.1 29.7441 21.1371M31.6854 22.5392C32.4777 24.1305 33.3939 25.6624 34.4265 27.1205C34.8081 27.6637 34.8657 28.1104 34.389 28.644C33.9556 29.1264 33.6406 29.6794 34.0901 30.3588C34.5399 31.0527 35.1951 31.224 35.9183 31.0118C36.6415 30.7997 37.0045 31.0545 37.423 31.6116C38.5814 33.1546 39.8125 34.6532 41.0581 36.1372L29.7441 21.1371M31.6854 22.5392L32.1335 22.3174C32.1335 22.3173 32.1334 22.3171 32.1333 22.317M31.6854 22.5392L32.133 22.3163C32.1331 22.3166 32.1332 22.3168 32.1333 22.317M29.7441 21.1371C29.1063 21.1604 28.3615 20.8748 28.1024 20.1783L29.7441 21.1371ZM32.1333 22.317C31.9238 21.8937 31.6777 21.4508 31.2977 21.1284C30.8939 20.7858 30.3854 20.6153 29.7274 20.6373L29.7259 20.6374C29.2082 20.6563 28.7268 20.4215 28.5713 20.0047M32.1333 22.317C32.9141 23.8851 33.817 25.3946 34.8345 26.8315L34.8356 26.8331C35.0504 27.1389 35.2256 27.487 35.2296 27.8808C35.2337 28.2903 35.0534 28.6508 34.7619 28.9771L34.7609 28.9781C34.5589 29.203 34.4365 29.3904 34.3911 29.5582C34.3541 29.6947 34.3567 29.8556 34.5071 30.0829L34.5097 30.0868L34.5097 30.0868C34.6821 30.3529 34.8718 30.4884 35.0592 30.5506C35.2512 30.6143 35.489 30.6167 35.7775 30.5321C36.2163 30.4033 36.6185 30.3972 36.9929 30.5686C37.345 30.7297 37.6026 31.0182 37.8228 31.3113L37.8228 31.3114C38.973 32.8434 40.1972 34.3338 41.4411 35.8157C41.6444 36.0579 41.8626 36.3578 41.9064 36.7223C41.9547 37.124 41.782 37.4721 41.5141 37.7832L41.5134 37.784C41.3318 37.9941 41.2267 38.1745 41.1934 38.3277C41.1669 38.4502 41.1764 38.5922 41.3257 38.7847L41.3274 38.787C41.5261 39.0462 41.7259 39.2008 41.9165 39.271C42.0945 39.3366 42.3072 39.3448 42.5816 39.2314C43.1171 39.0094 43.6233 38.9495 44.1159 39.0903C44.5956 39.2275 44.9972 39.537 45.3649 39.9235C46.4709 41.0775 47.6537 42.1631 48.8489 43.2601C49.0618 43.4555 49.2751 43.6513 49.4885 43.8479C49.7245 44.0621 49.9506 44.3246 50.0323 44.6688C50.1182 45.0305 50.0216 45.3765 49.8408 45.7038L49.8406 45.7041C49.6846 45.9861 49.5926 46.2106 49.5799 46.4003C49.57 46.55 49.6055 46.7107 49.8167 46.9033L49.8168 46.9034C50.0649 47.1299 50.2959 47.2137 50.5064 47.2229C50.7246 47.2326 50.9724 47.1641 51.2467 46.9975C51.6825 46.7322 52.1127 46.616 52.5577 46.6833C52.9841 46.7478 53.3542 46.9714 53.6932 47.2346M28.5713 20.0047L53.3868 47.6297M28.5713 20.0047C28.541 19.9221 28.5479 19.8812 28.5537 19.8595C28.562 19.8288 28.585 19.7807 28.6495 19.7073C28.7165 19.6309 28.8025 19.555 28.9189 19.4541L28.9327 19.4422C29.0361 19.3526 29.1677 19.2387 29.2794 19.1121L29.2797 19.1117C29.4253 18.9464 29.6129 18.7273 29.7246 18.463C29.8482 18.1706 29.8731 17.8415 29.7388 17.4828C29.4866 16.8058 29.2272 16.1293 28.9688 15.4554L28.9681 15.4536L28.9675 15.4521C28.925 15.3423 28.87 15.2217 28.7954 15.1155C28.7235 15.0132 28.5981 14.8738 28.3982 14.8125C28.1781 14.745 27.9765 14.8039 27.8296 14.8923C27.6938 14.974 27.5822 15.0922 27.4898 15.2104L27.8835 15.5185M28.5713 20.0047L61.9137 53.6823C61.6029 53.4918 61.3304 53.409 61.0193 53.7164M53.6932 47.2346C53.6933 47.2346 53.6934 47.2347 53.6934 47.2347L53.3868 47.6297M53.6932 47.2346C53.6932 47.2345 53.6931 47.2345 53.693 47.2344L53.3868 47.6297M53.6932 47.2346C53.9112 47.4034 54.1276 47.5723 54.3434 47.7407C55.61 48.729 56.8516 49.6978 58.2124 50.5061M53.3868 47.6297C53.602 47.7964 53.8168 47.964 54.0316 48.1317C55.2975 49.1196 56.5675 50.1108 57.9586 50.9368M58.2124 50.5061C58.212 50.5058 58.2116 50.5056 58.2112 50.5053L57.9586 50.9368M58.2124 50.5061C58.4655 50.6544 58.7097 50.8542 58.8548 51.1423C59.0071 51.4444 59.0161 51.7743 58.9248 52.1085L58.9213 52.1214L58.9211 52.1214C58.9123 52.1505 58.9089 52.1939 58.9108 52.3311L58.9109 52.3364L58.9108 52.3364C58.9112 52.4387 58.9099 52.5327 58.9087 52.6203C58.9052 52.8742 58.9024 53.0746 58.9419 53.2697C58.9847 53.4818 59.0702 53.6337 59.2867 53.7535M58.2124 50.5061C58.2129 50.5064 58.2134 50.5066 58.2138 50.5069L57.9586 50.9368M57.9586 50.9368L59.2867 53.7535M59.2867 53.7535C59.2865 53.7534 59.2864 53.7533 59.2862 53.7532L59.0454 54.1914M59.2867 53.7535L58.4425 51.9767C58.4074 52.0927 58.4091 52.2154 58.4108 52.338C58.4111 52.416 58.4099 52.495 58.4088 52.5743C58.3997 53.1919 58.3903 53.8295 59.0454 54.1914M59.2867 53.7535C59.2869 53.7536 59.287 53.7537 59.2872 53.7538L59.0454 54.1914M59.2867 53.7535C59.5513 53.8987 59.7657 53.9013 59.9638 53.8387C60.184 53.7691 60.4182 53.6066 60.6678 53.3608M59.0454 54.1914C59.8141 54.6138 60.4693 54.2582 61.0193 53.7164M61.0193 53.7164L60.6678 53.3608M61.0193 53.7164L60.6684 53.3603C60.6682 53.3604 60.668 53.3606 60.6678 53.3608M60.6678 53.3608C60.8981 53.1332 61.1725 52.9999 61.4875 53.0131C61.7677 53.0248 62.0058 53.1523 62.1751 53.2561L62.1755 53.2564C64.0511 54.4097 65.9901 55.4405 67.9999 56.3488C68.2759 56.4709 68.5225 56.6503 68.6702 56.933C68.8149 57.2098 68.8249 57.5106 68.7888 57.7922C68.7494 58.1031 68.7731 58.3639 68.8543 58.5688C68.9311 58.7624 69.0693 58.9337 69.3196 59.0654C69.5124 59.1658 69.6666 59.1579 69.8503 59.0892C70.016 59.0273 70.1625 58.9358 70.3508 58.8181C70.4262 58.771 70.5083 58.7197 70.601 58.6645L70.602 58.6638C70.6413 58.6406 70.6898 58.6014 70.7684 58.5296C70.7799 58.5191 70.7925 58.5074 70.8061 58.4949C70.8708 58.4351 70.9571 58.3553 71.045 58.2879C71.1568 58.2022 71.3074 58.1066 71.4974 58.0586C71.6974 58.0081 71.9081 58.0186 72.1217 58.0967L72.1225 58.097C72.8649 58.3701 73.6493 58.6841 74.3599 59.1209C74.5144 59.2159 74.6933 59.3863 74.7212 59.6554C74.7467 59.9005 74.6287 60.0855 74.558 60.1772C74.481 60.2769 74.3875 60.3586 74.3222 60.4128C74.2706 60.4557 74.2447 60.4759 74.2237 60.4923C74.2042 60.5076 74.1889 60.5195 74.1611 60.5433C72.9754 61.5652 71.6308 62.3469 70.3279 63.1042C70.1338 63.217 69.9406 63.3293 69.749 63.4418L69.7483 63.4422C64.6992 66.3958 59.2153 67.7013 50.8919 67.8694L50.8903 67.8767C36.7998 68.117 23.2134 56.0587 20.61 41.1711L20.61 41.1711C19.024 32.0984 21.0223 23.9082 26.4402 16.4806C26.6122 16.2431 26.7994 16.0229 26.9777 15.8168C27.0047 15.7856 27.0314 15.7548 27.0579 15.7242C27.2103 15.5486 27.3541 15.3828 27.4905 15.2094L27.8835 15.5185M27.8835 15.5185C28.1862 15.1318 28.3567 15.2593 28.5012 15.6326L21.1025 41.085C19.5405 32.1493 21.5041 24.0956 26.8448 16.7745C27.0263 16.5236 27.2298 16.2891 27.4343 16.0534C27.5864 15.8781 27.739 15.7022 27.8835 15.5185ZM53.6144 69.8846C73.1475 69.5486 88.0744 53.9788 88.0165 35.1707C87.7325 15.9091 72.118 0.742817 52.5316 0.994151C32.4975 1.25172 17.5585 17.5362 17.9919 36.2081L53.6144 69.8846ZM53.6144 69.8846C33.8691 70.2164 18.4329 54.8955 17.9919 36.2083L53.6144 69.8846Z" stroke="#FF991B"/>
<path d="M82.5782 35.8857L82.5563 35.5567C82.515 34.9332 82.5065 34.3268 82.4984 33.7473C82.4964 33.6007 82.4944 33.4558 82.4918 33.3129C82.4792 32.5971 82.4541 31.9193 82.3573 31.2481C81.2841 24.0643 77.9966 18.017 72.582 13.2883L72.9109 12.9117L72.582 13.2883C68.0007 9.28711 62.6605 6.7833 56.4793 6.2382C53.6463 5.9904 50.8558 6.01797 48.0912 6.431M82.5782 35.8857L44.7904 33.7401C44.7905 33.7402 44.7905 33.7402 44.7906 33.7402M82.5782 35.8857C82.5842 42.8589 80.1644 49.0553 75.6022 54.4959L75.6022 54.496C75.3508 54.7959 75.184 54.9924 75.045 55.1267C74.9101 55.257 74.8445 55.2849 74.8103 55.294C74.7764 55.303 74.707 55.3115 74.5278 55.2659C74.3425 55.2187 74.1038 55.1319 73.7406 54.9981L73.7367 54.9967C73.4788 54.9041 73.22 54.8046 72.955 54.7026L72.9524 54.7017C72.8052 54.646 72.6539 54.602 72.5201 54.5639C72.5033 54.5592 72.4868 54.5545 72.4706 54.5499C72.3513 54.5161 72.2465 54.4863 72.1457 54.4521C71.9134 54.3731 71.7883 54.2963 71.7167 54.2068L71.715 54.2048C71.7111 54.1999 71.7084 54.1961 71.7065 54.1933C71.7091 54.1772 71.7195 54.1375 71.7586 54.059C71.7806 54.0149 71.8067 53.9678 71.839 53.9106L71.8513 53.8888C71.8793 53.8394 71.9116 53.7822 71.9419 53.7247C72.0102 53.5951 72.0931 53.4189 72.1249 53.2159C72.1913 52.8048 72.2063 52.3668 72.0691 51.9609C71.9245 51.5332 71.627 51.1889 71.1655 50.9576C70.6787 50.7102 70.2145 50.7202 69.8022 50.8958C69.4234 51.0571 69.1152 51.347 68.8726 51.6067C68.8098 51.6713 68.7646 51.7395 68.7439 51.7708L68.7398 51.7768C68.7268 51.7963 68.7204 51.8054 68.7182 51.8086C68.565 51.9659 68.4769 52.1512 68.4193 52.2933C68.3896 52.3667 68.3636 52.4404 68.3419 52.5019C68.3188 52.5672 68.3005 52.6192 68.2812 52.6673C68.2622 52.7147 68.2465 52.7476 68.2328 52.7711C68.2292 52.7774 68.226 52.7826 68.2232 52.7867C68.1385 52.7862 68.0135 52.7477 67.8142 52.6379C67.7226 52.5875 67.63 52.5307 67.5259 52.4668L67.5111 52.4577C67.4058 52.393 67.2875 52.3207 67.1675 52.2568C66.5808 51.9396 65.9921 51.6183 65.4026 51.2966C64.5783 50.8467 63.7524 50.396 62.9282 49.9543L62.9266 49.9535C62.8609 49.9185 62.8148 49.8896 62.7831 49.8664C62.7956 49.8451 62.8137 49.8175 62.8395 49.7834C62.8397 49.7832 62.8399 49.7829 62.8401 49.7827L62.4415 49.4808C62.6196 49.247 62.7474 48.9674 62.8738 48.691C62.9012 48.6311 62.9285 48.5714 62.9562 48.5124C63.2948 47.7878 63.1119 47.2121 62.455 46.7516M82.5782 35.8857L61.485 45.97C61.0481 46.0228 60.6774 46.2607 60.3656 46.5764L60.3655 46.5763L60.3579 46.5844C60.3367 46.6068 60.3046 46.6389 60.2669 46.6766C60.1811 46.7623 60.0667 46.8766 59.9872 46.971M48.0912 6.431L48.0173 5.93649M48.0912 6.431L48.0173 5.93649M48.0912 6.431C43.2593 7.15348 39.0005 9.30947 35.0611 12.2105L35.0607 12.2108C34.4974 12.6247 34.1073 12.9141 33.836 13.1631C33.5686 13.4086 33.4696 13.5689 33.4304 13.7057C33.3908 13.8436 33.3898 14.0342 33.4841 14.3885C33.5797 14.7472 33.752 15.2028 33.9997 15.8564L34.0002 15.8578C34.1522 16.2623 34.347 16.4766 34.5495 16.5836C34.7522 16.6906 35.0415 16.7317 35.4659 16.6313C35.5684 16.6058 35.6667 16.5897 35.7546 16.5762C36.2399 16.494 36.676 16.5788 37.0465 16.794C37.4092 17.0047 37.6797 17.3228 37.8786 17.6649C38.0019 17.877 38.0665 18.0978 38.0676 18.3233C38.0687 18.5464 38.0075 18.7436 37.9247 18.9105C37.7862 19.1896 37.5566 19.4336 37.3954 19.605C37.3782 19.6233 37.3618 19.6408 37.3463 19.6574C36.9818 20.055 36.5225 20.2936 36.0811 20.4512C36.0013 20.4814 35.9593 20.5066 35.9388 20.5217C35.9438 20.5516 35.9586 20.6038 35.996 20.6834L35.998 20.6877L35.998 20.6877C36.8011 22.4411 37.717 24.1257 38.7656 25.7354C38.8172 25.8143 38.8509 25.8435 38.8639 25.8527C38.8791 25.8517 38.9178 25.8451 38.9909 25.8121L39.0005 25.8076C39.4249 25.6086 39.8806 25.3951 40.3623 25.2367C40.7984 25.0889 41.215 25.1043 41.5908 25.269C41.9538 25.428 42.2365 25.7075 42.4574 26.0152L42.4578 26.0157C42.7205 26.3826 42.8241 26.7756 42.7722 27.1724C42.7224 27.553 42.5364 27.8868 42.3152 28.1673L42.3138 28.169C42.0297 28.5259 41.671 28.8946 41.1981 29.131L41.1954 29.1324C41.1798 29.14 41.1657 29.1473 41.153 29.1542C41.1656 29.1721 41.1804 29.1918 41.1976 29.2137L41.1983 29.2145C41.6722 29.8174 42.1194 30.405 42.5637 30.9889C43.0812 31.6688 43.5948 32.3437 44.1422 33.0317C44.3736 33.3222 44.5233 33.5064 44.6456 33.6268C44.7645 33.7439 44.8009 33.742 44.7906 33.7402M48.0173 5.93649C43.0806 6.67464 38.7465 8.87556 34.7646 11.8079M48.0173 5.93649C50.8277 5.51662 53.6583 5.48953 56.5228 5.7401L34.7646 11.8079M44.7906 33.7402C44.797 33.7407 44.8468 33.7411 44.991 33.6768C45.1576 33.6025 45.3724 33.4792 45.7021 33.2891L45.7021 33.2891C46.1479 33.032 46.6241 32.9054 47.0976 32.9763C47.5766 33.0481 47.9868 33.3122 48.3109 33.7121L48.3125 33.7141C48.6397 34.1221 48.7926 34.5693 48.7285 35.0348C48.6671 35.4806 48.4173 35.8626 48.1075 36.181C48.0819 36.2083 48.0641 36.2303 48.0388 36.2617C48.0199 36.285 47.9969 36.3135 47.9634 36.3532C47.901 36.4271 47.805 36.5346 47.6736 36.62L47.6723 36.6208C47.5456 36.7027 47.4948 36.7618 47.477 36.789C47.4742 36.7933 47.4723 36.7966 47.4711 36.7989C47.4732 36.8094 47.4818 36.8401 47.5157 36.8952C47.5574 36.963 47.6239 37.0462 47.7215 37.1484C47.978 37.4156 48.2297 37.6823 48.4796 37.9473C49.195 38.7056 49.8964 39.449 50.6574 40.1458L50.6972 40.1822C51.0041 40.4632 51.211 40.6526 51.3822 40.7822C51.5566 40.9142 51.6384 40.9396 51.6851 40.9457C51.7306 40.9516 51.8148 40.9484 52.0137 40.8644C52.2177 40.7782 52.477 40.6368 52.8684 40.4221C52.9348 40.3852 53.0022 40.3521 53.0579 40.3247L53.0756 40.3159C53.1389 40.2847 53.19 40.259 53.2385 40.2309L53.2476 40.2256L53.2476 40.2257C53.5931 40.0352 53.958 39.9571 54.3261 40.0393C54.6837 40.1193 54.975 40.3354 55.2128 40.5975M44.7906 33.7402L54.6876 43.1692L55.0822 43.4764C55.0825 43.476 55.0827 43.4757 55.083 43.4753C55.5022 42.9367 55.7969 42.4469 55.8211 41.9411C55.8472 41.3965 55.5584 40.9755 55.2128 40.5975M55.2128 40.5975C55.2132 40.5979 55.2135 40.5983 55.2139 40.5987L54.8434 40.9345L55.2124 40.5971C55.2125 40.5972 55.2127 40.5973 55.2128 40.5975ZM62.455 46.7516L62.7461 46.3451C62.7454 46.3446 62.7446 46.344 62.7439 46.3435C62.7433 46.3431 62.7427 46.3427 62.7421 46.3422L62.455 46.7516ZM62.455 46.7516C61.8117 46.2911 61.2496 46.3927 60.7214 46.9277C60.6783 46.9734 60.6332 47.0182 60.588 47.063C60.5127 47.1378 60.437 47.213 60.3693 47.2934M60.3693 47.2934L59.9877 46.9703C59.9875 46.9705 59.9874 46.9707 59.9872 46.971M60.3693 47.2934L60.3622 47.3018C59.5837 48.2213 59.5741 48.2326 58.6289 47.5237L59.9872 46.971M60.3693 47.2934L59.9868 46.9714C59.9869 46.9712 59.9871 46.9711 59.9872 46.971M71.3263 54.5192C71.0873 54.2237 71.2498 53.9367 71.4166 53.6418C71.5098 53.4771 71.6043 53.31 71.631 53.1377L71.3263 54.5192ZM71.3263 54.5192C71.5602 54.8116 71.9486 54.9217 72.3347 55.0311M71.3263 54.5192L72.3347 55.0311M34.7646 11.8079C32.548 13.4366 32.557 13.4601 33.5262 16.0178L33.5322 16.0336L34.7646 11.8079ZM50.7688 64.8477L50.7704 64.8409C58.3616 64.7939 63.2656 63.6589 67.7782 61.0615C67.9621 60.9552 68.1451 60.8505 68.327 60.7464C69.534 60.0554 70.6904 59.3934 71.7175 58.5248C71.238 58.2556 70.7131 58.0345 70.1702 57.8228C70.1653 57.8209 70.1616 57.8197 70.159 57.8189C70.1503 57.8227 70.1306 57.833 70.0967 57.8586C70.0535 57.8914 70.014 57.9273 69.9567 57.9795C69.9402 57.9945 69.9223 58.0108 69.9024 58.0288C69.8258 58.0979 69.717 58.1937 69.5873 58.2694M50.7688 64.8477L61.1481 52.6433L60.8772 53.0636C62.6285 54.1924 64.4417 55.2051 66.3235 56.1015L66.3275 56.1034C66.4592 56.1647 66.4806 56.2079 66.4843 56.2153L66.4844 56.2155C66.4914 56.2297 66.5139 56.2869 66.4903 56.4541L66.4902 56.4551C66.4354 56.8503 66.4471 57.2698 66.5934 57.6606C66.7438 58.0625 67.026 58.4041 67.4549 58.6409L67.4561 58.6416C67.9218 58.897 68.3587 58.8675 68.7326 58.7314C68.987 58.6389 69.2445 58.4798 69.441 58.3584C69.4948 58.3252 69.5439 58.2948 69.5873 58.2694M50.7688 64.8477C38.2974 64.8776 26.2722 53.8004 24.1255 40.2131M50.7688 64.8477L24.1255 40.2131M69.5873 58.2694L69.3353 57.8375L69.5883 58.2687C69.588 58.269 69.5876 58.2692 69.5873 58.2694ZM30.2207 16.3925C30.0849 16.563 29.9417 16.726 29.7991 16.8885C29.6073 17.1069 29.4164 17.3243 29.2455 17.5573L30.2207 16.3925ZM30.2207 16.3925C30.5051 16.0336 30.6609 16.1555 30.7895 16.5077L30.2207 16.3925ZM24.1255 40.2131C22.8195 31.9441 24.7008 24.5482 29.6476 17.8545L29.6487 17.853C29.7839 17.6687 29.9356 17.4914 30.1017 17.3018C30.1252 17.2748 30.1492 17.2476 30.1734 17.22C30.252 17.1305 30.3335 17.0377 30.415 16.9421C30.6131 17.4903 30.81 18.0368 31.0017 18.583L31.0021 18.5842C31.0359 18.6797 31.0262 18.7338 31.001 18.7921C30.9639 18.8778 30.8891 18.9761 30.7481 19.1344C30.6901 19.1992 30.614 19.2652 30.5034 19.3599L30.4967 19.3656C30.3977 19.4504 30.2692 19.5604 30.1575 19.686C30.0407 19.8176 29.9197 19.9904 29.8579 20.2116C29.7938 20.4412 29.8045 20.6836 29.8906 20.9313L29.891 20.9327C30.2191 21.8687 31.1632 22.2044 31.8772 22.1882C32.2811 22.1803 32.5037 22.2846 32.6654 22.4281C32.8514 22.593 33.0035 22.8493 33.188 23.2419L33.1885 23.2429C33.9103 24.7691 34.749 26.2402 35.6976 27.6426M24.1255 40.2131L49.7509 46.4672M35.6976 27.6426C35.6974 27.6424 35.6972 27.6421 35.6971 27.6419L36.1123 27.3633L35.6981 27.6434C35.6979 27.6432 35.6978 27.6429 35.6976 27.6426ZM35.6976 27.6426C35.8464 27.8646 35.8826 27.9977 35.8823 28.0835C35.882 28.154 35.857 28.2688 35.6879 28.4561M35.6879 28.4561C35.4697 28.6961 35.2296 29.0067 35.123 29.3857C35.0082 29.794 35.0627 30.2282 35.3361 30.6621M35.6879 28.4561C35.6876 28.4564 35.6874 28.4566 35.6872 28.4568L36.058 28.7921L35.6881 28.4558C35.688 28.4559 35.6879 28.456 35.6879 28.4561ZM35.3361 30.6621C35.5893 31.0707 35.9259 31.3601 36.3343 31.5043C36.739 31.6472 37.1661 31.6307 37.5756 31.5148C37.8322 31.4423 37.9498 31.4711 38.0223 31.5061C38.1183 31.5524 38.2354 31.6577 38.4148 31.9076M35.3361 30.6621C35.3365 30.6628 35.3369 30.6634 35.3374 30.6641L35.7601 30.3971L35.3349 30.6602C35.3353 30.6608 35.3357 30.6614 35.3361 30.6621ZM38.4148 31.9076C38.4148 31.9076 38.4148 31.9077 38.4149 31.9077L38.821 31.6161L38.4148 31.9076ZM38.4148 31.9076C39.4724 33.3815 40.5965 34.812 41.7291 36.2226L41.7291 36.2227C41.9026 36.4387 41.9341 36.5317 41.9382 36.571L41.9383 36.5714C41.9393 36.578 41.9497 36.644 41.7968 36.8196C41.5863 37.0602 41.364 37.374 41.2784 37.7498C41.1863 38.1544 41.2651 38.5765 41.5606 38.9759C41.809 39.3147 42.1257 39.6094 42.5237 39.7648C42.9355 39.9255 43.3845 39.9175 43.8434 39.7321L43.8438 39.732C44.1929 39.5907 44.4316 39.5885 44.6247 39.6476C44.8315 39.7109 45.0582 39.8661 45.3383 40.1739L45.3396 40.1753C46.3688 41.2976 47.4727 42.3563 48.5616 43.4006C48.7551 43.5861 48.948 43.7712 49.14 43.956L49.1429 43.9588C49.311 44.1181 49.3472 44.2019 49.3556 44.2404C49.3606 44.2633 49.372 44.3366 49.2677 44.5223C49.2677 44.5224 49.2676 44.5225 49.2676 44.5226L49.7035 44.7674M49.7035 44.7674C49.3988 45.3092 49.1685 45.9119 49.7509 46.4672M49.7035 44.7674C49.9812 44.2731 49.8728 43.9616 49.4868 43.5959M49.7035 44.7674L49.4868 43.5959M49.7509 46.4672L49.4058 46.829C49.4058 46.829 49.4058 46.8291 49.4059 46.8291L49.7509 46.4672ZM49.4868 43.5959C49.2933 43.4096 49.0994 43.2236 48.9054 43.0375C47.8161 41.9928 46.7255 40.9468 45.7081 39.8374L49.4868 43.5959ZM72.3347 55.0311C72.485 55.0737 72.635 55.1162 72.7755 55.1693L72.3347 55.0311ZM86.4469 35.6237L86.4469 35.618C86.4331 17.0076 71.7827 2.13881 53.1645 2.11818C34.1186 2.09756 19.6958 17.632 19.8608 35.6839L19.8608 35.6841C20.0326 53.7487 34.5112 68.7605 53.2806 68.7055H53.2808C71.852 68.6436 86.2544 53.7955 86.4469 35.6237ZM38.8562 25.8527C38.8563 25.8526 38.8571 25.8526 38.8587 25.8529L38.8562 25.8527ZM38.8686 25.8558C38.8696 25.8562 38.8701 25.8565 38.8701 25.8565L38.8686 25.8558ZM35.9215 20.5369C35.9214 20.5369 35.9219 20.5362 35.9231 20.5349C35.9222 20.5363 35.9215 20.537 35.9215 20.5369ZM47.6358 35.9645C47.5636 36.0533 47.4913 36.1421 47.4011 36.2008L47.7464 35.8351C47.708 35.8757 47.6719 35.9201 47.6358 35.9645ZM41.9226 27.8576C41.6585 28.1895 41.3537 28.4942 40.9745 28.6838L42.0512 26.3068C42.444 26.8554 42.3018 27.3768 41.9226 27.8576ZM33.6405 23.0291C33.268 22.2368 32.8888 21.668 31.8663 21.6883C31.2771 21.7018 30.5931 21.4242 30.3629 20.7673C30.1945 20.2825 30.5182 20.0054 30.8329 19.736L33.6405 23.0291ZM30.2712 16.5693C30.2713 16.5695 30.2715 16.5697 30.2716 16.5699L30.2712 16.5693Z" fill="#FF991B" stroke="black"/>
<path d="M22.9974 186.281V194.294H21.683V188.806L19.2388 194.294H18.328L15.8722 188.806V194.294H14.5579V186.281H15.976L18.7892 192.564L21.5908 186.281H22.9974ZM29.6134 192.657H26.2583L25.6819 194.294H24.3099L27.1807 186.269H28.7026L31.5734 194.294H30.1899L29.6134 192.657ZM29.2445 191.584L27.9416 187.86L26.6273 191.584H29.2445ZM38.056 186.281V187.353H35.923V194.294H34.6087V187.353H32.4642V186.281H38.056ZM39.0066 190.27C39.0066 189.486 39.1872 188.783 39.5485 188.16C39.9174 187.537 40.4132 187.053 41.0358 186.707C41.6661 186.354 42.354 186.177 43.0996 186.177C43.9527 186.177 44.7098 186.388 45.3709 186.811C46.0396 187.226 46.5238 187.818 46.8236 188.587H45.244C45.0365 188.164 44.7483 187.849 44.3793 187.641C44.0104 187.434 43.5838 187.33 43.0996 187.33C42.5692 187.33 42.0965 187.449 41.6814 187.687C41.2664 187.926 40.9397 188.268 40.7014 188.713C40.4709 189.159 40.3556 189.678 40.3556 190.27C40.3556 190.862 40.4709 191.381 40.7014 191.826C40.9397 192.272 41.2664 192.618 41.6814 192.864C42.0965 193.102 42.5692 193.221 43.0996 193.221C43.5838 193.221 44.0104 193.118 44.3793 192.91C44.7483 192.703 45.0365 192.388 45.244 191.965H46.8236C46.5238 192.733 46.0396 193.325 45.3709 193.74C44.7098 194.155 43.9527 194.363 43.0996 194.363C42.3463 194.363 41.6584 194.19 41.0358 193.844C40.4132 193.49 39.9174 193.002 39.5485 192.38C39.1872 191.757 39.0066 191.054 39.0066 190.27ZM54.8185 186.281V194.294H53.5041V190.789H49.734V194.294H48.4197V186.281H49.734V189.717H53.5041V186.281H54.8185ZM60.9734 186.281V194.294H59.659V186.281H60.9734ZM65.3969 194.374C64.8589 194.374 64.3746 194.282 63.9442 194.098C63.5138 193.906 63.1756 193.637 62.9296 193.291C62.6837 192.945 62.5607 192.541 62.5607 192.08H63.9673C63.998 192.426 64.1325 192.71 64.3708 192.933C64.6167 193.156 64.9588 193.268 65.3969 193.268C65.8504 193.268 66.204 193.16 66.4576 192.945C66.7113 192.722 66.8381 192.437 66.8381 192.092C66.8381 191.823 66.7574 191.604 66.596 191.434C66.4422 191.265 66.2462 191.135 66.008 191.042C65.7774 190.95 65.4546 190.85 65.0395 190.743C64.5168 190.604 64.0902 190.466 63.7597 190.328C63.4369 190.182 63.1602 189.959 62.9296 189.659C62.699 189.359 62.5837 188.959 62.5837 188.46C62.5837 187.999 62.699 187.595 62.9296 187.249C63.1602 186.903 63.483 186.638 63.8981 186.454C64.3131 186.269 64.7935 186.177 65.3393 186.177C66.1156 186.177 66.7497 186.373 67.2416 186.765C67.7412 187.149 68.0179 187.68 68.0717 188.356H66.619C66.596 188.064 66.4576 187.814 66.204 187.607C65.9503 187.399 65.616 187.295 65.2009 187.295C64.8243 187.295 64.5168 187.391 64.2786 187.584C64.0403 187.776 63.9211 188.052 63.9211 188.414C63.9211 188.66 63.9942 188.863 64.1402 189.025C64.2939 189.178 64.4861 189.301 64.7167 189.394C64.9473 189.486 65.2624 189.586 65.6621 189.693C66.1924 189.84 66.6229 189.986 66.9534 190.132C67.2916 190.278 67.576 190.504 67.8066 190.812C68.0448 191.112 68.164 191.515 68.164 192.022C68.164 192.43 68.0525 192.814 67.8296 193.175C67.6144 193.537 67.2954 193.829 66.8727 194.052C66.4576 194.267 65.9657 194.374 65.3969 194.374ZM76.4799 194.374C75.7343 194.374 75.0464 194.201 74.4162 193.856C73.7936 193.502 73.2978 193.014 72.9289 192.391C72.5676 191.761 72.387 191.054 72.387 190.27C72.387 189.486 72.5676 188.783 72.9289 188.16C73.2978 187.537 73.7936 187.053 74.4162 186.707C75.0464 186.354 75.7343 186.177 76.4799 186.177C77.2332 186.177 77.9211 186.354 78.5437 186.707C79.174 187.053 79.6697 187.537 80.031 188.16C80.3922 188.783 80.5729 189.486 80.5729 190.27C80.5729 191.054 80.3922 191.761 80.031 192.391C79.6697 193.014 79.174 193.502 78.5437 193.856C77.9211 194.201 77.2332 194.374 76.4799 194.374ZM76.4799 193.233C77.0103 193.233 77.483 193.114 77.898 192.876C78.3131 192.63 78.6359 192.284 78.8665 191.838C79.1048 191.384 79.2239 190.862 79.2239 190.27C79.2239 189.678 79.1048 189.159 78.8665 188.713C78.6359 188.268 78.3131 187.926 77.898 187.687C77.483 187.449 77.0103 187.33 76.4799 187.33C75.9496 187.33 75.4769 187.449 75.0618 187.687C74.6467 187.926 74.3201 188.268 74.0818 188.713C73.8512 189.159 73.7359 189.678 73.7359 190.27C73.7359 190.862 73.8512 191.384 74.0818 191.838C74.3201 192.284 74.6467 192.63 75.0618 192.876C75.4769 193.114 75.9496 193.233 76.4799 193.233ZM88.5072 194.294H87.1928L83.2382 188.31V194.294H81.9239V186.269H83.2382L87.1928 192.241V186.269H88.5072V194.294ZM91.9395 186.281L91.7896 191.873H90.6943L90.5444 186.281H91.9395ZM91.2823 194.374C91.044 194.374 90.8442 194.294 90.6828 194.132C90.5214 193.971 90.4407 193.771 90.4407 193.533C90.4407 193.294 90.5214 193.095 90.6828 192.933C90.8442 192.772 91.044 192.691 91.2823 192.691C91.5129 192.691 91.7089 192.772 91.8703 192.933C92.0317 193.095 92.1124 193.294 92.1124 193.533C92.1124 193.771 92.0317 193.971 91.8703 194.132C91.7089 194.294 91.5129 194.374 91.2823 194.374Z" fill="#FF991B"/>
</svg>
